<?xml version="1.0" encoding="UTF-8"?>
<svg width="924px" height="379px" viewBox="0 0 924 379" version="1.1" xmlns="http://www.w3.org/2000/svg" xmlns:xlink="http://www.w3.org/1999/xlink">
    <title>BKash-bKash2-Logo.wine</title>
    <g id="Page-1" stroke="none" stroke-width="1" fill="none" fill-rule="evenodd">
        <g id="BKash-bKash2-Logo.wine" fill-rule="nonzero">
            <path d="M0,105.095963 C2.53850855,105.326737 5.1026586,105.779737 7.83775198,105.779737 C10.4104492,105.779737 12.7523729,105.326737 15.675504,105.095963 L15.675504,188.994953 C23.9149728,174.917769 34.3083276,165.635546 49.5821148,165.635546 C77.1894636,165.635546 89.1554972,193.037763 89.1554972,218.192075 C89.1554972,248.337932 73.0697292,277.150432 44.8726258,277.150432 C28.8124994,277.150432 20.5815777,267.210077 17.0345035,261.039022 C12.3421089,265.116021 8.21382732,270.116113 3.7094704,274.629017 L0,274.629017 L0,105.095963 Z M15.26524,228.397392 C15.26524,252.867931 25.667142,269.893887 42.6845511,269.893887 C64.8644491,269.893887 71.9073145,240.218124 71.9073145,219.106622 C71.9073145,194.64463 63.8729777,175.362222 44.6845882,175.131448 C22.3508413,174.917769 15.26524,201.439628 15.26524,228.397392 Z" id="Shape" fill="#DF146E"></path>
            <path d="M161.250849,159.361926 L144.592421,180.764031 C160.250831,203.678986 176.498995,226.055468 192.217235,249.209743 L208.046588,274.073452 L208.046588,275.329885 C204.14908,275.090564 200.602005,274.594829 197.260063,274.594829 C193.55914,274.594829 189.84967,275.090564 186.31969,275.329885 C182.00337,267.363926 177.669957,259.919343 172.780977,252.679893 L130.036596,189.242821 C129.079313,188.234255 126.728843,187.499199 126.728843,188.482123 L126.728843,275.321338 C123.600579,275.082017 120.874033,274.586282 118.121846,274.586282 C115.18162,274.586282 112.241395,275.082017 109.497754,275.321338 L109.497754,105.095963 C112.232848,105.343831 115.18162,105.865208 118.121846,105.865208 C120.865486,105.865208 123.600579,105.343831 126.728843,105.095963 L126.728843,182.00337 C126.942522,183.473483 129.669068,182.499106 131.626369,180.524711 C135.190538,177.037467 139.276083,171.789506 142.011177,168.336451 L190.225745,105.087416 C192.755706,105.335284 195.285668,105.856661 198.080591,105.856661 C200.413968,105.856661 202.943929,105.335284 205.696117,105.087416 L161.250849,159.361926 Z M290.954106,256.269703 C290.954106,265.116021 290.355804,269.680208 301.928668,266.722888 L301.928668,271.697339 C300.53548,272.38966 298.193556,273.500791 296.056765,273.962338 C285.859995,276.013658 277.406847,274.210206 275.851262,260.825343 L274.10764,262.868116 C265.885266,272.38966 256.885099,277.150432 245.072914,277.150432 C231.20941,277.150432 219.063886,266.269888 219.063886,249.466158 C219.063886,223.645167 236.841993,220.2263 255.295326,216.833075 C270.791339,213.867208 276.0393,212.550945 276.0393,201.661854 C276.0393,184.909407 267.825473,175.131448 253.124346,175.131448 C238.84203,175.131448 231.20941,185.798313 229.799127,190.789858 L227.653788,190.789858 L227.653788,178.080221 C237.055672,170.635639 247.662706,165.635546 259.192834,165.635546 C279.791506,165.635546 290.954106,178.080221 290.954106,203.713174 L290.954106,256.269703 Z M275.261508,218.875848 L268.389586,220.474168 C255.098741,223.397299 235.072729,225.68794 235.072729,246.312254 C235.072729,260.568928 242.380557,267.620341 254.295307,267.620341 C259.577457,267.620341 266.244247,263.329663 269.936623,259.013344 C271.364,257.423571 275.270055,253.543157 275.270055,251.970478 L275.270055,218.875848 L275.261508,218.875848 Z M325.843641,253.32093 C330.518941,262.201437 339.160127,270.116113 348.32269,270.116113 C357.9468,270.116113 367.562362,261.474928 367.562362,249.466158 C367.562362,218.875848 321.305095,238.833483 321.305095,199.166081 C321.305095,177.404995 335.6216,165.635546 353.262952,165.635546 C363.442628,165.635546 371.870134,169.011677 375.391567,171.50745 C373.45136,176.721221 371.878682,182.157219 370.70772,187.618859 L368.938456,187.618859 C366.3914,180.140088 359.536573,172.618581 352.262934,172.618581 C342.493522,172.618581 334.450638,179.242636 334.450638,191.465084 C334.450638,220.474168 380.699358,205.046532 380.699358,241.329255 C380.699358,265.577568 361.904138,277.150432 344.630314,277.150432 C336.621618,277.150432 326.980414,274.629017 320.125586,269.893887 C321.715359,264.457889 323.476076,259.021891 324.270962,253.32093 L325.843641,253.32093 Z M407.144292,105.095963 C409.691348,105.326737 412.212762,105.779737 414.964949,105.779737 C417.546194,105.779737 419.87957,105.326737 422.802701,105.095963 L422.802701,187.618859 C429.648982,173.763902 440.452601,165.635546 454.367389,165.635546 C477.068664,165.635546 485.897887,181.268314 485.897887,209.815851 L485.897887,275.338432 C482.93202,275.099112 480.598644,274.629017 478.068682,274.629017 C475.307947,274.629017 472.760892,275.107659 470.205289,275.338432 L470.205289,215.021076 C470.205289,189.866764 465.119724,177.396448 448.478391,177.396448 C430.837038,177.396448 422.811249,190.114632 422.811249,213.636435 L422.811249,275.338432 C419.896665,275.099112 417.563288,274.629017 414.973497,274.629017 C412.229856,274.629017 409.699895,275.107659 407.152839,275.338432 L407.152839,105.095963 L407.144292,105.095963 Z" id="Shape" fill="#221F1F"></path>
            <path d="M904.409911,378.562566 L561.4292,378.562566 C551.164053,378.562566 542.779282,370.160701 542.779282,359.895554 L542.779282,18.6841067 C542.779282,8.39331782 551.164053,0 561.4292,0 L904.409911,0 C914.692152,0 923.076923,8.39331782 923.076923,18.6841067 L923.076923,359.895554 C923.076923,370.160701 914.692152,378.562566 904.409911,378.562566" id="Path" fill="#DF146E"></path>
            <path d="M815.382621,207.277343 L694.807739,188.080406 L711.12428,259.269759 L815.382621,207.277343 Z M820.2716,201.448175 L725.466426,69.7448813 L694.500041,181.76405 L820.2716,201.448175 Z M688.628137,180.234107 L589.284417,53.3257738 L719.380843,68.8730703 L688.628137,180.234107 Z M640.430663,127.634842 L585.309984,75.6680679 L599.797432,75.6680679 L640.430663,127.634842 Z M849.870439,137.464084 L826.545221,200.73876 L788.715461,148.447193 L849.870439,137.464084 Z M725.833954,258.397948 L817.374111,221.64513 L821.254525,209.978247 L725.833954,258.397948 Z M649.482113,325.245339 L688.705061,187.618859 L708.585772,277.18462 L649.482113,325.245339 Z M855.460286,137.942725 L845.819082,164.062867 L880.512032,163.464566 L855.460286,137.942725 Z" id="Shape" fill="#FFFFFF"></path>
        </g>
    </g>
</svg>