<svg width="164" height="107" viewBox="0 0 164 107" fill="none" xmlns="http://www.w3.org/2000/svg">
<path d="M160.583 40.1509H3.41677C1.36677 40.1509 0 41.4859 0 43.4883V90.2094C0 99.5538 7.51676 106.895 17.0832 106.895H146.916C156.483 106.895 163.999 99.5535 163.999 90.2094V43.4883C164 41.4859 162.633 40.1509 160.583 40.1509ZM23.9167 66.849H51.2499C53.2999 66.849 54.6667 68.184 54.6667 70.1864C54.6667 72.1887 53.2999 73.5237 51.2499 73.5237H23.9167C21.8667 73.5234 20.5 72.1884 20.5 70.186C20.5 68.1837 21.8667 66.849 23.9167 66.849ZM71.7499 86.8724H23.9167C21.8667 86.8724 20.5 85.5374 20.5 83.5351C20.5 81.5327 21.8667 80.1977 23.9167 80.1977H71.7499C73.7999 80.1977 75.1666 81.5327 75.1666 83.5351C75.1666 85.5374 73.7999 86.8724 71.7499 86.8724ZM129.833 86.8724C127.1 86.8724 125.05 86.2051 123 84.8701C120.95 86.2051 118.9 86.8724 116.167 86.8724C108.65 86.8724 102.5 80.8654 102.5 73.5234C102.5 66.1814 108.65 60.1743 116.167 60.1743C118.9 60.1743 120.95 60.8417 123 62.1767C125.05 60.8417 127.1 60.1743 129.833 60.1743C137.35 60.1743 143.5 66.1814 143.5 73.5234C143.5 80.8654 137.35 86.8724 129.833 86.8724Z" fill="#363C49"/>
<path d="M146.917 0.104187H17.0832C7.51676 0.104187 0 7.4462 0 16.7906V23.4649C0 25.4673 1.36677 26.8023 3.41677 26.8023H160.583C162.633 26.8023 164 25.4673 164 23.4649V16.7906C164 7.4462 156.483 0.104187 146.917 0.104187Z" fill="#363C49"/>
</svg>
