<?xml version="1.0" encoding="UTF-8"?>
<svg width="870px" height="521px" viewBox="0 0 870 521" version="1.1" xmlns="http://www.w3.org/2000/svg" xmlns:xlink="http://www.w3.org/1999/xlink">
    <title>login-bg</title>
    <g id="Page-1" stroke="none" stroke-width="1" fill="none" fill-rule="evenodd">
        <g id="login-bg" fill-rule="nonzero">
            <path d="M666.09239,514.25664 C654.95406,504.84484 648.18846,489.97697 649.96274,475.50298 C651.73702,461.02899 662.72632,447.72298 676.98105,444.64934 C691.23578,441.5757 707.4852,450.08399 711.81483,464.00874 C714.19763,437.16237 716.94337,409.19117 731.21662,386.32898 C744.14069,365.62783 766.52542,350.81534 790.78542,348.16541 C815.04542,345.51548 840.58807,355.524 855.71814,374.67212 C870.84821,393.82024 874.55275,421.65761 863.95604,443.64123 C856.14981,459.83579 841.76804,471.88799 826.69944,481.69307 C778.007511,513.109879 719.60789,525.885801 662.24568,517.67016 L666.09239,514.25664 Z" id="Path" fill="#F2F2F2"></path>
            <path d="M831.72785,356.0788 C811.710354,372.383313 793.346407,390.618664 776.90163,410.52109 C751.165626,441.561661 730.339781,476.363808 715.14963,513.71509 C714.03763,516.43993 718.46235,517.62609 719.56193,514.93151 C744.415691,454.22788 784.092465,400.72434 834.9634,359.31434 C837.24777,357.45419 833.9934,354.23399 831.72785,356.0788 L831.72785,356.0788 Z" id="Path" fill="#FFFFFF"></path>
            <path d="M280.06709,511.69941 C295.36559,498.77229 304.65809,478.35126 302.22117,458.47124 C299.78425,438.59122 284.69038,420.31536 265.11151,416.09375 C245.53264,411.87214 223.21406,423.55824 217.26731,442.68389 C213.99453,405.8104 210.22325,367.39194 190.61894,335.99072 C172.86772,307.55772 142.12228,287.21272 108.80117,283.57304 C75.48006,279.93336 40.39722,293.68004 19.61606,319.98004 C-1.1651,346.28004 -6.25328,384.51463 8.3013,414.70913 C19.02315,436.95237 38.77658,453.50606 59.47325,466.97335 C125.50279,509.93865 207.41237,527.85778 285.35055,516.38789" id="Path" fill="#F2F2F2"></path>
            <path d="M52.56673,294.44208 C80.0607636,316.836339 105.283651,341.882602 127.87056,369.21859 C150.461037,396.526504 170.34951,425.961213 187.25662,457.10927 C196.706923,474.58192 205.196357,492.557431 212.68703,510.95557 C214.21429,514.69814 208.13703,516.32726 206.62672,512.62632 C193.358903,480.190473 176.944112,449.133028 157.61772,419.89932 C138.385212,390.771542 116.372545,363.578075 91.88897,338.70095 C78.0409725,324.637216 63.4301664,311.345541 48.12271,298.88611 C44.98512,296.33119 49.45503,291.90823 52.56671,294.44211 L52.56673,294.44208 Z" id="Path" fill="#FFFFFF"></path>
            <path d="M624.49997,519 L259.49997,519 L259.49997,144.5 C259.49997,64.82227 324.32224,0 403.99973,0 L480.00022,0 C559.67771,0 624.49997,64.82227 624.49997,144.5 L624.49997,519 Z" id="Path" fill="#F2F2F2"></path>
            <path d="M548.500459,519 L259.49948,519 L259.49948,144.5 C259.420196,113.969339 269.087968,84.2102731 287.09568,59.55566 C287.75949,58.65088 288.4216,57.75781 289.10446,56.87451 C297.814654,45.450566 308.180077,35.3896834 319.85861,27.02393 C320.51828,26.54393 321.18061,26.07227 321.85276,25.60059 C331.62497,18.8380064 342.195893,13.309729 353.32492,9.14159 C353.98581,8.8911 354.65866,8.64013 355.33151,8.3994 C365.396681,4.80747521 375.830382,2.34701758 386.43991,1.06347 C387.09763,0.97362 387.77291,0.90331 388.44821,0.833 C398.787234,-0.272469991 409.214656,-0.272469991 419.55368,0.833 C420.22702,0.90331 420.90232,0.97362 421.56784,1.06444 C432.174639,2.3480717 442.605626,4.80821497 452.66818,8.39944 C453.34128,8.64017 454.01418,8.89114 454.67697,9.14212 C465.668701,13.2576799 476.115228,18.7034636 485.78342,25.35794 C486.45505,25.81937 487.12742,26.29105 487.78977,26.76272 C494.335884,31.4354662 500.484654,36.6411809 506.17331,42.32672 C510.73521,46.8871381 514.986201,51.7483008 518.89768,56.8775 C519.57834,57.75787 520.24045,58.65094 520.90305,59.55426 C538.911444,84.209127 548.579656,113.968731 548.500459,144.5 L548.500459,519 Z" id="Path" fill="#CCCCCC"></path>
            <circle id="Oval" fill="#4C57C0" cx="524.99994" cy="335.5" r="16"></circle>
            <polygon id="Path" fill="#FFB8B8" points="594.599 507.783 582.339 507.783 576.506 460.495 594.601 460.496"></polygon>
            <path d="M573.58165,504.27981 L597.22549,504.27981 L597.22549,519.16669 L558.69478,519.16669 L558.69478,519.16669 C558.69478,515.218444 560.263215,511.431908 563.055046,508.640076 C565.846878,505.848245 569.633414,504.27981 573.58166,504.27981 L573.58165,504.27981 Z" id="Path" fill="#2F2E41"></path>
            <polygon id="Path" fill="#FFB8B8" points="655.599 507.783 643.339 507.783 637.506 460.495 655.601 460.496"></polygon>
            <path d="M634.58165,504.27981 L658.22549,504.27981 L658.22549,519.16669 L619.69478,519.16669 L619.69478,519.16669 C619.69478,515.218444 621.263215,511.431908 624.055046,508.640076 C626.846878,505.848245 630.633414,504.27981 634.58166,504.27981 L634.58165,504.27981 Z" id="Path" fill="#2F2E41"></path>
            <path d="M533.09755,338.66962 C531.312125,336.039068 530.783569,332.752794 531.654104,329.695064 C532.52464,326.637334 534.704843,324.122244 537.60807,322.82655 L579.28384,207.95988 L599.79097,219.15127 L552.20621,328.92198 C554.101216,334.056222 551.856611,339.796392 546.98148,342.283276 C542.10635,344.77016 536.14165,343.217691 533.09755,338.66962 L533.09755,338.66962 Z" id="Path" fill="#FFB8B8"></path>
            <path d="M649.33641,360.25357 C646.578327,358.67226 644.662325,355.950509 644.103963,352.820686 C643.5456,349.690863 644.402234,346.474472 646.44336,344.03698 L633.5326,222.52757 L656.87036,223.59379 L662.23603,343.11427 C666.190392,346.897711 666.690005,353.040842 663.398971,357.413542 C660.107936,361.786241 654.066498,363.006367 649.33641,360.25361 L649.33641,360.25357 Z" id="Path" fill="#FFB8B8"></path>
            <circle id="Oval" fill="#FFB8B8" cx="612.1058" cy="162.12254" r="24.56103"></circle>
            <path d="M649.17955,332.61864 L575.13268,332.61864 L575.22179,332.04247 C575.35485,331.18114 588.41857,245.60347 578.78356,217.60647 C576.781231,211.908538 579.399257,205.617896 584.85289,203.02297 L584.85314,203.02297 C598.62487,196.53762 625.06066,188.55178 647.37314,207.93215 C654.029997,213.809342 657.534041,222.475856 656.83261,231.32815 L649.17955,332.61864 Z" id="Path" fill="#4C57C0"></path>
            <path d="M589.35436,258.25047 L556.01769,251.48727 L571.64391,214.45749 C573.590976,206.989891 581.214822,202.507072 588.687101,204.436099 C596.15938,206.365126 600.660597,213.978124 598.74962,221.45504 L589.35436,258.25047 Z" id="Path" fill="#4C57C0"></path>
            <path d="M632.0504,270.80809 L630.04625,224.86668 C628.52648,216.23045 633.47033,208.06639 641.0736,206.73192 C648.67907,205.40233 656.10534,211.39208 657.63195,220.09178 L665.16495,263.01952 L632.0504,270.80809 Z" id="Path" fill="#4C57C0"></path>
            <path d="M646.71603,327.1186 C658.63058,372.49531 659.93039,430.188 656.71603,493.1186 L640.71603,491.1186 L611.71603,371.1186 L595.71603,493.1186 L577.71603,492.1186 C572.33859,426.08888 567.10275,369.40333 575.71603,332.1186 L646.71603,327.1186 Z" id="Path" fill="#2F2E41"></path>
            <path d="M628.28907,181.10401 C623.70707,185.9848 615.19776,183.36468 614.60072,176.69684 C614.553896,176.179164 614.557292,175.658171 614.61086,175.14115 C614.91912,172.18758 616.62547,169.50609 616.21673,166.38755 C616.124215,165.6114 615.835044,164.871729 615.37662,164.23863 C611.72538,159.3493 603.15435,166.4255 599.70842,161.99934 C597.59542,159.28534 600.07922,155.01221 598.45777,151.97883 C596.31771,147.97525 589.97896,149.95023 586.00389,147.75767 C581.58114,145.31819 581.84567,138.53243 584.75703,134.40498 C588.30755,129.37139 594.53275,126.68547 600.68039,126.29837 C606.82803,125.91127 612.93331,127.57312 618.67268,129.80982 C625.19377,132.35116 631.66036,135.86333 635.67335,141.59735 C640.55356,148.57052 641.02321,157.94528 638.58252,166.09909 C637.09782,171.05914 632.03074,177.11833 628.28907,181.10401 Z" id="Path" fill="#2F2E41"></path>
            <path d="M468.99997,410.500096 L338.99997,410.500096 C335.435213,410.519189 332.527531,407.649392 332.49997,404.08469 L332.49997,113.91527 C332.527531,110.350568 335.435213,107.480771 338.99997,107.499864 L468.99997,107.499864 C472.564727,107.480771 475.472409,110.350568 475.49997,113.91527 L475.49997,404.08469 C475.472409,407.649392 472.564727,410.519189 468.99997,410.500096 Z" id="Path" fill="#FFFFFF"></path>
            <rect id="Rectangle" fill="#CCCCCC" x="332.49994" y="201.38965" width="143" height="2"></rect>
            <rect id="Rectangle" fill="#CCCCCC" x="332.99994" y="315.5" width="143" height="2"></rect>
            <rect id="Rectangle" fill="#CCCCCC" x="377.49994" y="107.5" width="2" height="304"></rect>
            <rect id="Rectangle" fill="#CCCCCC" x="427.49994" y="107.5" width="2" height="304"></rect>
        </g>
    </g>
</svg>