<?xml version="1.0" encoding="UTF-8"?>
<svg width="417px" height="383px" viewBox="0 0 417 383" version="1.1" xmlns="http://www.w3.org/2000/svg" xmlns:xlink="http://www.w3.org/1999/xlink">
    <title>Group</title>
    <g id="Page-1" stroke="none" stroke-width="1" fill="none" fill-rule="evenodd">
        <g id="logo-with-text-white" fill-rule="nonzero">
            <g id="Group" transform="translate(0.498486, 0.993577)">
                <path d="M128.761514,181.346423 L114.881514,167.686423 L114.881514,143.156423 C114.881514,141.499569 116.224659,140.156423 117.881514,140.156423 L139.621514,140.156423 C141.278368,140.156423 142.621514,141.499569 142.621514,143.156423 L142.621514,167.686423 L128.761514,181.346423 Z" id="Path" fill="#FFFFFF"></path>
                <path d="M125.261514,184.846423 L111.561514,198.736423 L87.0715135,198.736423 C85.4146593,198.736423 84.0715135,197.393278 84.0715135,195.736423 L84.0715135,173.946423 C84.0715135,172.289569 85.4146593,170.946423 87.0715135,170.946423 L111.561514,170.946423 L125.261514,184.846423 Z" id="Path" fill="#FFFFFF"></path>
                <path d="M128.881514,188.346423 L142.761514,202.056423 L142.761514,226.546423 C142.761514,228.203278 141.418368,229.546423 139.761514,229.546423 L117.971514,229.546423 C116.314659,229.546423 114.971514,228.203278 114.971514,226.546423 L114.971514,202.056423 L128.881514,188.346423 Z" id="Path" fill="#FFFFFF"></path>
                <path d="M132.381514,184.846423 L146.081514,170.966423 L170.621514,170.966423 C172.278368,170.966423 173.621514,172.309569 173.621514,173.966423 L173.621514,195.776423 C173.621514,197.433278 172.278368,198.776423 170.621514,198.776423 L146.081514,198.776423 L132.381514,184.846423 Z" id="Path" fill="#FFFFFF"></path>
                <circle id="Oval" fill="#FFFFFF" cx="288.201514" cy="158.246423" r="16.2"></circle>
                <circle id="Oval" fill="#FFFFFF" cx="262.291514" cy="185.546423" r="16.2"></circle>
                <circle id="Oval" fill="#FFFFFF" cx="289.591514" cy="211.456423" r="16.2"></circle>
                <circle id="Oval" fill="#FFFFFF" cx="315.501514" cy="184.156423" r="16.2"></circle>
                <path d="M192.191514,210.946423 C190.611514,210.946423 187.944847,213.039757 184.191514,217.226423 C180.441514,221.426423 178.191514,224.016423 177.401514,225.026423 C165.594847,238.439757 149.05818,254.36309 127.791514,272.796423 C116.371514,282.516423 105.444847,290.056423 95.0115135,295.416423 C84.3117442,300.829348 72.461508,303.574046 60.4715135,303.416423 C43.1381802,303.416423 34.4715135,292.35309 34.4715135,270.226423 C34.4715135,254.479757 39.9848468,232.106423 51.0115135,203.106423 C62.0381802,174.106423 76.2415135,148.63309 93.6215135,126.686423 C105.671514,111.406423 121.261514,97.1264234 141.201514,94.1764234 C146.101514,93.4464234 149.411514,93.8264234 153.731514,96.2664234 C157.666892,98.5849842 161.324017,101.346281 164.631514,104.496423 C169.291514,108.756423 173.631514,113.396423 178.461514,117.406423 C180.168322,118.942868 182.1359,120.162022 184.271514,121.006423 C186.437067,121.836685 188.858237,121.672104 190.891514,120.556423 C191.808489,120.033298 192.494196,119.183307 192.811514,118.176423 C193.024536,116.943435 192.860737,115.674863 192.341514,114.536423 C188.566648,104.263304 183.008035,94.7371547 175.921514,86.3964234 C170.561514,80.0464234 162.581514,76.6664234 154.861514,74.1764234 C145.801514,71.2564234 136.691514,69.7664234 127.181514,71.1764234 C118.961514,72.3864234 110.951514,76.3264234 104.001514,80.7664234 C93.2915135,87.6164234 84.0915135,96.6664234 75.9015135,106.316423 C55.4215135,130.456423 38.4915135,158.949757 25.1115135,191.796423 C11.7315135,224.64309 5.03818018,251.796423 5.03151351,273.256423 C4.90876362,287.354114 10.0712724,300.986419 19.5015135,311.466423 C29.1548468,322.526423 41.4581802,328.059757 56.4115135,328.066423 C74.1315135,328.066423 91.1581802,322.366423 107.491514,310.966423 C123.824847,299.566423 142.201514,283.32309 162.621514,262.236423 C171.339335,253.340988 179.523614,243.937916 187.131514,234.076423 C195.191514,223.689757 199.22818,217.486423 199.242011,215.466423 C199.281514,212.456423 196.911514,210.946423 192.191514,210.946423 Z" id="Path" fill="#ED1C24"></path>
                <path d="M268.401514,9.23642342 C264.06273,3.34980513 257.153747,-0.086073572 249.841514,0.00642341826 C242.526738,-0.140593521 235.385124,2.23994446 229.621514,6.74642342 L210.971514,21.0764234 C210.161514,21.7064234 208.731514,22.8264234 206.701514,24.4564234 C204.671514,26.0864234 203.141514,27.2764234 202.031514,28.1364234 C198.85616,30.6848524 195.436122,32.9123994 191.821514,34.7864234 C190.669176,31.3977263 189.024931,28.1968395 186.941514,25.2864234 C184.964447,22.6180046 182.09259,20.7507652 178.851514,20.0264234 C175.518185,19.242699 172.009997,20.0559775 169.361514,22.2264234 C166.757103,24.0736801 165.169145,27.0349065 165.071514,30.2264234 C164.996834,33.3049802 166.017436,36.310086 167.951514,38.7064234 C172.195003,44.2941178 178.65066,47.7699603 185.651514,48.2364234 C186.251514,51.5764234 187.261514,57.9264234 188.651514,67.2364234 C190.0312,76.9356031 191.964355,86.5479581 194.441514,96.0264234 C196.621514,103.916423 199.521514,110.276423 203.081514,114.916423 C207.601514,120.796423 213.251514,123.756423 219.731514,123.746449 C223.400232,123.669771 227.015745,122.853475 230.361514,121.346423 L232.251514,120.546423 L229.961514,111.946423 L227.361514,113.246423 C225.219239,114.35322 222.684183,114.40126 220.501514,113.376423 C217.869189,112.252932 215.574136,110.464445 213.841514,108.186423 C210.941514,104.416423 208.361514,98.9464234 206.161514,91.9464234 C203.901514,84.7464234 201.631514,75.6364234 199.411514,64.8764234 C197.751514,56.8064234 196.521514,51.0864234 195.751514,47.7864234 C202.221514,46.3864234 210.091514,42.0864234 219.691514,34.7164234 C221.581514,33.2564234 224.321514,31.0964234 228.061514,28.0864234 C231.631514,25.2164234 234.341514,23.0864234 236.111514,21.7164234 C239.58656,18.9732335 243.263668,16.4962001 247.111514,14.3064234 C249.65501,12.8711394 252.53112,12.1296963 255.451514,12.1564234 C257.951514,12.2064234 260.061514,13.3964234 261.901514,15.7864234 C263.472348,17.9058302 264.266749,20.5008727 264.151514,23.1364234 C264.161199,24.0945008 264.02635,25.0485612 263.751514,25.9664234 C263.446043,25.1690935 263.024861,24.4210748 262.501514,23.7464234 C261.447479,22.3279114 259.935382,21.3174914 258.221514,20.8864234 C256.348811,20.4011593 254.356936,20.8314341 252.851514,22.0464234 C250.75085,23.6225911 249.431615,26.0278261 249.231514,28.6464234 C248.931992,31.2093344 249.650128,33.7874421 251.231514,35.8264234 C253.013026,38.098494 255.776438,39.3779206 258.661514,39.2664234 L258.661514,39.2664234 C261.465991,39.3118203 264.202513,38.4019971 266.421514,36.6864234 C270.67223,33.6380887 273.216243,28.7468995 273.271514,23.5164234 C273.363369,18.3341141 271.640666,13.2827377 268.401514,9.23642342 L268.401514,9.23642342 Z M174.181514,30.8764234 C174.166377,30.3072857 174.451115,29.7719783 174.931514,29.4664234 C175.383463,29.0469962 175.966215,28.7962364 176.581514,28.7564234 C177.421514,28.7564234 178.521514,29.3064234 179.991514,31.2164234 C181.256812,33.0116556 182.288436,34.9606536 183.061514,37.0164234 C179.903005,37.1011323 176.897783,35.6562427 174.991514,33.1364234 C174.467982,32.4996006 174.181693,31.7008196 174.181514,30.8764234 L174.181514,30.8764234 Z" id="Shape" fill="#1B75BC"></path>
                <path d="M223.051514,210.946423 C224.631514,210.946423 227.29818,213.039757 231.051514,217.226423 C234.801514,221.426423 237.051514,224.016423 237.841514,225.026423 C249.64818,238.439757 266.184847,254.36309 287.451514,272.796423 C298.871514,282.516423 309.79818,290.056423 320.231514,295.416423 C330.931283,300.829348 342.781519,303.574046 354.771514,303.416423 C372.104847,303.416423 380.771514,292.35309 380.771514,270.226423 C380.771514,254.479757 375.25818,232.106423 364.231514,203.106423 C353.204847,174.106423 339.01818,148.63309 321.671514,126.686423 C309.621514,111.406423 294.031514,97.1264234 274.091514,94.1764234 C269.191514,93.4464234 265.881514,93.8264234 261.561514,96.2664234 C257.626135,98.5849842 253.96901,101.346281 250.661514,104.496423 C246.001514,108.756423 241.661514,113.396423 236.831514,117.406423 C235.124705,118.942868 233.157127,120.162022 231.021514,121.006423 C228.85596,121.836685 226.43479,121.672104 224.401514,120.556423 C223.484538,120.033298 222.798831,119.183307 222.481514,118.176423 C222.268491,116.943435 222.43229,115.674863 222.951514,114.536423 C226.726379,104.263304 232.284992,94.7371547 239.371514,86.3964234 C244.731514,80.0464234 252.711514,76.6664234 260.431514,74.1764234 C269.491514,71.2564234 278.601514,69.7664234 288.111514,71.1764234 C296.331514,72.3864234 304.341514,76.3264234 311.291514,80.7664234 C322.001514,87.6164234 331.201514,96.6664234 339.391514,106.316423 C359.871514,130.456423 376.801514,158.949757 390.181514,191.796423 C403.561514,224.64309 410.254847,251.796423 410.261514,273.256423 C410.384263,287.354114 405.221755,300.986419 395.791514,311.466423 C386.13818,322.526423 373.834847,328.059757 358.881514,328.066423 C341.161514,328.066423 324.134847,322.366423 307.801514,310.966423 C291.46818,299.566423 273.074847,283.32309 252.621514,262.236423 C243.903692,253.340988 235.719413,243.937916 228.111514,234.076423 C220.051514,223.689757 216.014847,217.486423 216.001016,215.466423 C215.961514,212.456423 218.331514,210.946423 223.051514,210.946423 Z" id="Path" fill="#009444"></path>
                <path d="M0.00151351186,367.206423 C0.0141235176,366.131448 0.12795961,365.060049 0.341513512,364.006423 C0.568816984,362.801624 0.969655793,361.63616 1.53151351,360.546423 C2.3120184,358.991808 3.18007938,357.482717 4.13151351,356.026423 C5.04328726,354.641769 6.02800945,353.306552 7.08151351,352.026423 C8.01072018,350.876677 9.01278094,349.787771 10.0815135,348.766423 C10.9564915,347.923531 11.9185593,347.176001 12.9515135,346.536423 L12.9515135,346.536423 L14.7515135,345.416423 C15.3816411,345.02468 16.0326018,344.667486 16.7015135,344.346423 C17.3451594,344.02274 18.0140235,343.75185 18.7015135,343.536423 C19.34895,343.333756 20.0231037,343.229263 20.7015135,343.226418 C21.3697913,343.225392 22.0307975,343.365089 22.6415135,343.636423 C23.2475499,343.908252 23.797091,344.291574 24.2615135,344.766423 C24.7259224,345.252173 25.0985939,345.817956 25.3615135,346.436423 C25.623813,347.070682 25.7596907,347.75007 25.7615135,348.436423 C25.7704717,348.831762 25.7403251,349.227017 25.6715135,349.616423 C25.6384294,349.849532 25.5453949,350.070058 25.4015135,350.256423 C25.2890986,350.402787 25.1241103,350.499628 24.9415135,350.526423 C24.7285125,350.543264 24.5145145,350.543264 24.3015135,350.526423 C24.0040274,350.542437 23.7093468,350.461751 23.4615135,350.296423 C23.2574305,350.149766 23.0897823,349.958168 22.9715135,349.736423 C22.8483208,349.505619 22.7542678,349.260409 22.6915135,349.006423 C22.6358111,348.756975 22.5588637,348.51275 22.4615135,348.276423 C22.3829863,348.070728 22.267787,347.880988 22.1215135,347.716423 C21.973097,347.561846 21.7656467,347.478138 21.5515135,347.486423 C20.8267062,347.498538 20.1107529,347.647836 19.4415135,347.926423 C18.6370228,348.244225 17.863716,348.635899 17.1315135,349.096423 C16.3125963,349.602425 15.524535,350.156739 14.7715135,350.756423 C13.9815135,351.386423 13.2315135,352.016423 12.5215135,352.666423 C11.8115135,353.316423 11.1515135,353.956423 10.5215135,354.586423 C9.89151351,355.216423 9.39151351,355.786423 8.95151351,356.296423 C8.31490433,357.101544 7.7207624,357.93935 7.17151351,358.806423 C6.64733014,359.640942 6.18605332,360.513357 5.79151351,361.416423 C5.4036637,362.291623 5.10223242,363.202615 4.89151351,364.136423 C4.67320629,365.090875 4.56582864,366.06734 4.57151351,367.046423 C4.56199599,367.727388 4.67373801,368.404612 4.90151351,369.046423 C5.09145865,369.572132 5.33261808,370.077897 5.62151351,370.556423 C5.88056889,371.006573 6.28144996,371.358223 6.76151351,371.556423 C7.28098952,371.756611 7.8350114,371.851781 8.39151351,371.836423 C9.67526727,371.846292 10.9562398,371.715513 12.2115135,371.446423 C13.3580125,371.209641 14.4821216,370.875085 15.5715135,370.446423 C16.6527713,369.999168 17.7019232,369.477933 18.7115135,368.886423 C19.7115135,368.286423 20.7815135,367.646423 21.8715135,366.966423 L22.5015135,366.966423 C22.7291011,366.966972 22.9527991,367.025478 23.1515135,367.136423 C23.3677419,367.250175 23.5637096,367.39884 23.7315135,367.576423 C23.902656,367.750547 24.0414824,367.953707 24.1415135,368.176423 C24.247677,368.398006 24.3023737,368.640723 24.3015135,368.886423 C24.2832822,369.473659 24.0604408,370.036068 23.6715135,370.476423 C23.2024602,371.050866 22.6574667,371.558854 22.0515135,371.986423 C21.3455082,372.49538 20.599779,372.94683 19.8215135,373.336423 C19.0015135,373.756423 18.1815135,374.136423 17.3815135,374.456423 C16.5815135,374.776423 15.8315135,375.056423 15.1315135,375.286423 C14.5815588,375.474331 14.0204824,375.627959 13.4515135,375.746423 L12.4515135,375.976423 C12.1115135,376.056423 11.7215135,376.126423 11.2715135,376.196423 C10.8215135,376.266423 10.2715135,376.326423 9.64151351,376.366423 C9.01151351,376.406423 8.21151351,376.426423 7.25151351,376.426423 C6.70531154,376.434616 6.16247268,376.339619 5.65151351,376.146423 C5.19144577,375.980521 4.75191045,375.762431 4.34151351,375.496423 C3.98168019,375.268489 3.64654212,375.00373 3.34151351,374.706423 C3.07151351,374.426423 2.86151351,374.186423 2.70151351,373.996423 C1.84304728,373.042954 1.14101655,371.959532 0.621513512,370.786423 C0.190270577,369.643047 -0.020116664,368.42823 0.00151351186,367.206423 Z" id="Path" stroke="#ED1C24" fill="#ED1C24"></path>
                <path d="M32.9215135,352.836423 C32.9716136,352.597386 33.0666283,352.370029 33.2015135,352.166423 C33.3204457,351.989148 33.4615941,351.827835 33.6215135,351.686423 C33.7384012,351.591897 33.8659324,351.511351 34.0015135,351.446423 C34.0856062,351.404407 34.1775994,351.380557 34.2715135,351.376423 C34.4827921,351.379324 34.6934856,351.39939 34.9015135,351.436423 L35.6115135,351.546423 L36.3615135,351.686423 C36.7365117,351.67221 37.0879017,351.869143 37.2715135,352.196423 C37.466997,352.554675 37.5636363,352.958489 37.5515135,353.366423 C37.5577271,353.705045 37.5104796,354.042527 37.4115135,354.366423 C36.8615135,356.366423 36.3515135,358.156423 35.9015135,359.656423 C35.4515135,361.156423 35.0615135,362.436423 34.7415135,363.486423 C34.4215135,364.536423 34.1815135,365.406423 34.0115135,366.066423 C33.8706018,366.558516 33.786718,367.065174 33.7615135,367.576423 C33.7646883,367.959935 33.8082622,368.342044 33.8915135,368.716423 C33.9732335,369.125406 34.10769,369.522052 34.2915135,369.896423 C34.4583289,370.243111 34.6890266,370.555232 34.9715135,370.816423 C35.2487752,371.0561 35.6051042,371.184379 35.9715135,371.176423 C36.7062877,371.160578 37.4224931,370.942603 38.0415135,370.546423 C38.7633968,370.105232 39.4341582,369.585392 40.0415135,368.996423 C40.664157,368.398134 41.2361167,367.749244 41.7515135,367.056423 C42.2615135,366.366423 42.6815135,365.756423 43.0015135,365.216423 L43.6415135,364.116423 C44.0638495,363.366733 44.4250208,362.584195 44.7215135,361.776423 C45.0515135,360.886423 45.3415135,360.006423 45.6015135,359.106423 C45.8615135,358.206423 46.0615135,357.376423 46.2415135,356.586423 C46.4215135,355.796423 46.5615135,355.176423 46.6515135,354.706423 L47.2915135,351.466423 C47.3500883,350.991681 47.5564934,350.547385 47.8815135,350.196423 C48.2736024,349.918032 48.7528681,349.790228 49.2315135,349.836423 C49.6028064,349.833431 49.9728072,349.880522 50.3315135,349.976423 C50.6443303,350.058282 50.9304034,350.220275 51.1615135,350.446423 C51.3995537,350.706268 51.5741223,351.017753 51.6715135,351.356423 C51.795408,351.839696 51.852605,352.337646 51.8415135,352.836423 C51.8206522,353.698897 51.710056,354.556854 51.5115135,355.396423 C51.2915135,356.396423 51.0515135,357.396423 50.7915135,358.456423 C50.6415135,359.056423 50.4915135,359.686423 50.3415135,360.366423 C50.1915135,361.046423 50.0515135,361.706423 49.9315135,362.366423 C49.8115135,363.026423 49.7115135,363.676423 49.6315135,364.286423 C49.563931,364.830577 49.5272056,365.378119 49.5215135,365.926423 C49.5215135,366.756423 49.5215135,367.576423 49.6115135,368.406423 C49.7015135,369.236423 49.7015135,370.106423 49.7015135,371.036423 C49.7015135,371.456423 49.7015135,371.826423 49.7015135,372.156423 C49.6870368,372.402587 49.6502187,372.646925 49.5915135,372.886423 C49.4692923,373.401909 49.2335622,373.883619 48.9015135,374.296423 C48.5027264,374.64392 47.977691,374.810483 47.4515135,374.756423 C47.0715148,374.772473 46.6918184,374.718231 46.3315135,374.596423 C46.0824352,374.514438 45.8586086,374.369811 45.6815135,374.176423 C45.5350298,374.003253 45.4321595,373.797513 45.3815135,373.576423 C45.3328264,373.355653 45.2994139,373.131789 45.2815135,372.906423 L45.0215135,368.306423 L44.8015135,368.386423 C44.2615135,369.066423 43.6815135,369.826423 43.0415135,370.666423 C42.414848,371.512408 41.7155268,372.302073 40.9515135,373.026423 C40.2073046,373.74808 39.369873,374.366905 38.4615135,374.866423 C37.5651431,375.361988 36.5556978,375.616933 35.5315135,375.606423 C35.2525315,375.594828 34.9765344,375.54434 34.7115135,375.456423 C34.3698013,375.341159 34.0357897,375.204215 33.7115135,375.046423 C33.3673013,374.887341 33.0333225,374.706993 32.7115135,374.506423 C32.4388474,374.335299 32.1812499,374.141265 31.9415135,373.926423 C31.0856875,373.16919 30.4325833,372.210158 30.0415135,371.136423 C29.6741524,370.119766 29.4847144,369.047412 29.4815135,367.966423 C29.4834012,367.363779 29.5301975,366.762113 29.6215135,366.166423 C29.7215135,365.566423 29.8415135,364.986423 29.9715135,364.426423 C30.1015135,363.866423 30.2415135,363.346423 30.3915135,362.846423 C30.5415135,362.346423 30.6715135,361.916423 30.7715135,361.526423 C31.0815135,360.306423 31.3515135,359.236423 31.6015135,358.306423 C31.8515135,357.376423 32.0515135,356.576423 32.2415135,355.876423 C32.4315135,355.176423 32.5815135,354.586423 32.7115135,354.086423 L32.9215135,352.836423 Z" id="Path" stroke="#FFFFFF" fill="#FFFFFF"></path>
                <path d="M56.7815135,371.986423 C57.0015135,370.846423 57.2415135,369.606423 57.5115135,368.236423 C57.7815135,366.866423 58.0715135,365.496423 58.3715135,364.106423 L59.2215135,359.986423 C59.4915135,358.646423 59.7315135,357.416423 59.9215135,356.296423 C59.9215135,356.126423 59.9215135,355.986423 59.9215135,355.866423 L59.9215135,355.466423 C59.9199526,354.961385 59.9533659,354.456845 60.0215135,353.956423 C60.0775787,353.487886 60.1644332,353.023548 60.2815135,352.566423 C60.3835732,352.109453 60.5888071,351.681883 60.8815135,351.316423 C61.1770782,351.07016 61.5583934,350.951448 61.9415135,350.986423 C62.6887218,350.924192 63.3996,351.319124 63.7415135,351.986423 C63.9089636,352.318478 64.017251,352.67718 64.0615135,353.046423 C64.0615135,353.446423 64.1315135,353.856423 64.1315135,354.276423 C64.1315135,354.506423 64.1315135,354.756423 64.1315135,355.036423 C64.1315135,355.316423 64.1315135,355.526423 64.1315135,355.686423 C64.5815135,355.216423 65.0715135,354.736423 65.5815135,354.236423 C66.0853379,353.746759 66.6307185,353.301755 67.2115135,352.906423 C67.7784039,352.505324 68.3889762,352.169845 69.0315135,351.906423 C69.6666064,351.648041 70.3458723,351.515584 71.0315135,351.516423 C71.3034174,351.517774 71.5745988,351.544558 71.8415135,351.596423 C72.1186977,351.641807 72.392616,351.705276 72.6615135,351.786423 C73.0018237,351.874032 73.3359009,351.984277 73.6615135,352.116423 C74.0172128,352.264182 74.3531301,352.455655 74.6615135,352.686423 C75.2020565,353.104799 75.6598758,353.62027 76.0115135,354.206423 C76.3596997,354.765267 76.5497817,355.40809 76.5615135,356.066423 C76.5574728,356.336439 76.5067236,356.603718 76.4115135,356.856423 C76.3189069,357.135372 76.1840004,357.398439 76.0115135,357.636423 C75.8478209,357.866891 75.6446994,358.066627 75.4115135,358.226423 C75.1903239,358.376752 74.9289519,358.456906 74.6615135,358.456423 C74.31895,358.441493 73.9811449,358.370554 73.6615135,358.246423 C73.295352,358.130409 72.9555742,357.943531 72.6615135,357.696423 C72.5282589,357.574836 72.4106853,357.437106 72.3115135,357.286423 C72.1915135,357.106423 72.0815135,356.926423 71.9715135,356.746423 L71.6815135,356.246423 C71.6222606,356.139315 71.5518708,356.038759 71.4715135,355.946423 L71.2015135,355.946423 L70.9415135,355.946423 C70.1131948,355.945706 69.2992727,356.162982 68.5815135,356.576423 C67.8232967,357.009173 67.1184775,357.529396 66.4815135,358.126423 C65.8371445,358.745856 65.2420107,359.414545 64.7015135,360.126423 C64.1515135,360.816423 63.7015135,361.436423 63.2715135,361.986423 C62.9515135,363.296423 62.5915135,364.696423 62.1915135,366.176423 C61.7915135,367.656423 61.4015135,369.176423 61.0115135,370.836423 L61.0115135,371.446423 C61.0115135,371.936423 61.0115135,372.446423 61.0115135,372.936423 C60.9890766,373.392745 60.8910791,373.842182 60.7215135,374.266423 C60.5175655,374.53115 60.2536559,374.743648 59.9515135,374.886423 C59.5943911,375.063535 59.2000933,375.152681 58.8015135,375.146423 C58.2093642,375.18917 57.633899,374.938805 57.2615135,374.476423 C56.9207625,374.024829 56.7411998,373.472058 56.7515135,372.906423 C56.717541,372.599897 56.7276436,372.290085 56.7815135,371.986423 L56.7815135,371.986423 Z" id="Path" stroke="#FFFFFF" fill="#FFFFFF"></path>
                <path d="M77.4715135,370.036423 C77.7115135,369.096423 78.0015135,368.036423 78.3415135,366.756423 L79.4215135,362.756423 C79.8115135,361.366423 80.1915135,359.936423 80.5815135,358.476423 C80.9715135,357.016423 81.3315135,355.596423 81.6715135,354.216423 C81.7210203,354.101016 81.7812864,353.990528 81.8515135,353.886423 C81.9647016,353.713675 82.1028696,353.558657 82.2615135,353.426423 C82.4649815,353.257086 82.6946495,353.121987 82.9415135,353.026423 C83.2606576,352.905404 83.6003069,352.847664 83.9415135,352.856423 C84.2134418,352.857298 84.484668,352.884086 84.7515135,352.936423 C84.9923944,352.990885 85.2245915,353.078379 85.4415135,353.196423 C85.6384026,353.305192 85.8064123,353.459486 85.9315135,353.646423 C86.0534754,353.840963 86.1160312,354.066859 86.1115135,354.296423 L86.1115135,354.446423 C86.122021,354.499239 86.122021,354.553608 86.1115135,354.606423 L85.4315135,357.186423 C84.6715135,360.076423 83.9015135,362.966423 83.1115135,365.876423 C82.3215135,368.786423 81.5615135,371.686423 80.8115135,374.606423 C80.7701631,374.733089 80.7200418,374.856722 80.6615135,374.976423 C80.5932691,375.130117 80.5059132,375.274591 80.4015135,375.406423 C80.2837502,375.552913 80.1416815,375.678069 79.9815135,375.776423 C79.8066253,375.881153 79.6052482,375.933233 79.4015135,375.926423 C79.0124983,375.933003 78.6278459,375.843709 78.2815135,375.666423 C77.9707376,375.501419 77.6901122,375.285033 77.4515135,375.026423 C77.231293,374.772677 77.0585393,374.481367 76.9415135,374.166423 C76.8350781,373.888403 76.7775626,373.594059 76.7715135,373.296423 L76.7715135,373.076423 C76.7586102,373.003658 76.7586102,372.929189 76.7715135,372.856423 L77.4715135,370.036423 Z M83.8215135,344.856423 C83.9293889,344.431634 84.0732419,344.016802 84.2515135,343.616423 C84.5005669,343.087189 84.8874206,342.634708 85.3715135,342.306423 C85.6752153,342.141485 85.9931689,342.004263 86.3215135,341.896423 C86.5786846,341.80009 86.8478651,341.739524 87.1215135,341.716423 C87.3013204,341.722419 87.4753156,341.781578 87.6215135,341.886423 C87.7817642,341.996733 87.9323103,342.120515 88.0715135,342.256423 C88.2410203,342.421273 88.3981146,342.598422 88.5415135,342.786423 C88.865827,342.776229 89.1694369,342.945329 89.3315135,343.226423 C89.4583322,343.519675 89.5197558,343.837031 89.5115135,344.156423 C89.5157136,344.391695 89.4922188,344.626643 89.4415135,344.856423 C89.4415135,345.066423 89.3515135,345.236423 89.3115135,345.366423 C89.2090345,345.722807 89.0161207,346.046627 88.7515135,346.306423 C88.4741497,346.592841 88.1576846,346.838607 87.8115135,347.036423 C87.4577413,347.236139 87.081864,347.393873 86.6915135,347.506423 C86.3682036,347.611348 86.0313333,347.668616 85.6915135,347.676423 C85.3926749,347.695333 85.0945704,347.629473 84.8315135,347.486423 C84.5322151,347.252602 84.2722619,346.972393 84.0615135,346.656423 C83.9271068,346.486622 83.825384,346.293349 83.7615135,346.086423 C83.7544178,345.969865 83.7544178,345.852982 83.7615135,345.736423 C83.7499321,345.576633 83.7499321,345.416214 83.7615135,345.256423 C83.7615135,345.116423 83.7815135,344.986423 83.8215135,344.856423 L83.8215135,344.856423 Z" id="Shape" stroke="#FFFFFF" fill="#FFFFFF"></path>
                <path d="M90.3615135,365.176423 C90.6365706,364.0927 91.014971,363.037868 91.4915135,362.026423 C92.0428454,360.838528 92.7129228,359.709447 93.4915135,358.656423 C94.3845913,357.451501 95.3890142,356.333243 96.4915135,355.316423 C97.7230203,354.187404 99.0628332,353.182545 100.491514,352.316423 C101.320374,351.880431 102.228296,351.615195 103.161514,351.536423 C103.831811,350.851177 104.764218,350.486955 105.721514,350.536423 C106.868701,350.511799 107.992473,350.862978 108.921514,351.536423 C109.831218,352.231668 110.567186,353.128522 111.071514,354.156423 C111.251514,354.516423 111.421514,354.856423 111.571514,355.156423 C111.72388,355.511362 111.854129,355.875391 111.961514,356.246423 C112.069846,356.650943 112.153336,357.06171 112.211514,357.476423 C112.283823,357.966348 112.31726,358.461225 112.311514,358.956423 C112.305752,360.286274 112.100121,361.607704 111.701514,362.876423 C111.283931,364.236509 110.706568,365.542289 109.981514,366.766423 C108.384635,369.428305 106.253088,371.730103 103.721514,373.526423 C102.839247,374.170095 101.860401,374.669644 100.821514,375.006423 C99.6654125,375.362656 98.4611975,375.538059 97.2515135,375.526423 C96.1474998,375.547712 95.0480757,375.37857 94.0015135,375.026423 C93.144861,374.729601 92.3657241,374.244349 91.7215135,373.606423 C91.1046533,372.978126 90.6365058,372.219522 90.3515135,371.386423 C90.0406038,370.462012 89.8884535,369.491632 89.9015135,368.516423 C89.9164388,367.388374 90.070947,366.26651 90.3615135,365.176423 L90.3615135,365.176423 Z M94.3615135,365.486423 C94.1838163,366.138288 94.0930306,366.810775 94.0915135,367.486423 C94.086909,367.99406 94.1576802,368.499568 94.3015135,368.986423 C94.4303917,369.429324 94.6596648,369.83654 94.9715135,370.176423 C95.2941313,370.51629 95.6864302,370.782371 96.1215135,370.956423 C96.6649861,371.157892 97.2421357,371.252952 97.8215135,371.236423 C99.0325765,371.243651 100.222417,370.91852 101.261514,370.296423 C102.328447,369.675174 103.284792,368.881035 104.091514,367.946423 C104.905111,367.035396 105.603679,366.027846 106.171514,364.946423 C106.681625,363.996386 107.077704,362.989406 107.351514,361.946423 C107.501514,361.376423 107.621514,360.836423 107.731514,360.336423 C107.835092,359.880263 107.888741,359.414188 107.891524,358.946423 C107.892581,358.54185 107.814445,358.14098 107.661514,357.766423 C107.501514,357.406423 107.301514,356.996423 107.061514,356.536423 C106.911514,356.266423 106.771514,355.976423 106.621514,355.676423 C106.471514,355.376423 106.351514,355.076423 106.231514,354.786423 C106.116036,355.000108 105.978629,355.201192 105.821514,355.386423 C105.634941,355.582878 105.4104,355.739376 105.161514,355.846423 C104.778652,356.01283 104.379962,356.140143 103.971514,356.226423 C103.311009,356.361645 102.643223,356.458474 101.971514,356.516423 C101.391457,356.714126 100.842588,356.993611 100.341514,357.346423 C99.7666549,357.73813 99.2248438,358.176262 98.7215135,358.656423 C98.1852562,359.168303 97.6809719,359.712663 97.2115135,360.286423 C96.7419621,360.853566 96.3109941,361.451576 95.9215135,362.076423 C95.5542904,362.653516 95.2204106,363.25116 94.9215135,363.866423 C94.6855431,364.384276 94.5110215,364.927978 94.4015135,365.486423 L94.3615135,365.486423 Z" id="Shape" stroke="#FFFFFF" fill="#FFFFFF"></path>
                <path d="M120.701514,352.836423 C120.760472,352.60023 120.854877,352.374333 120.981514,352.166423 C121.090318,351.999291 121.221542,351.847878 121.371514,351.716423 C121.486859,351.619765 121.614669,351.539043 121.751514,351.476423 C121.835606,351.434407 121.927599,351.410557 122.021514,351.406423 C122.232743,351.410202 122.443368,351.430261 122.651514,351.466423 L123.351514,351.576423 L124.111514,351.716423 C124.486512,351.70221 124.837902,351.899143 125.021514,352.226423 C125.216997,352.584675 125.313636,352.988489 125.301514,353.396423 C125.304491,353.735576 125.253867,354.07307 125.151514,354.396423 C124.59818,356.396423 124.09818,358.159757 123.651514,359.686423 C123.191514,361.186423 122.811514,362.466423 122.491514,363.516423 C122.171514,364.566423 121.931514,365.436423 121.761514,366.096423 C121.618484,366.588411 121.531269,367.094931 121.501514,367.606423 C121.508412,367.990258 121.555332,368.372326 121.641514,368.746423 C121.723234,369.155406 121.85769,369.552052 122.041514,369.926423 C122.208329,370.273111 122.439027,370.585232 122.721514,370.846423 C122.998775,371.0861 123.355104,371.214379 123.721514,371.206423 C124.456288,371.190578 125.172493,370.972603 125.791514,370.576423 C126.513679,370.135641 127.184483,369.615767 127.791514,369.026423 C128.41732,368.428252 128.992612,367.779376 129.511514,367.086423 C130.021514,366.396423 130.441514,365.786423 130.761514,365.246423 L131.391514,364.146423 C131.813286,363.395001 132.177658,362.612773 132.481514,361.806423 C132.811514,360.916423 133.101514,360.036423 133.351514,359.136423 C133.601514,358.236423 133.821514,357.406423 134.001514,356.616423 C134.181514,355.826423 134.311514,355.206423 134.411514,354.736423 L135.041514,351.496423 C135.102883,351.020498 135.31285,350.576068 135.641514,350.226423 C136.033602,349.948032 136.512868,349.820228 136.991514,349.866423 C137.359513,349.863474 137.726204,349.910572 138.081514,350.006423 C138.395411,350.085602 138.682145,350.24797 138.911514,350.476423 C139.156411,350.731245 139.331986,351.044526 139.421514,351.386423 C139.550315,351.868777 139.607593,352.367428 139.591514,352.866423 C139.570652,353.728897 139.460056,354.586854 139.261514,355.426423 C139.051514,356.426423 138.811514,357.426423 138.551514,358.486423 C138.401514,359.086423 138.251514,359.716423 138.101514,360.396423 C137.951514,361.076423 137.801514,361.736423 137.681514,362.396423 C137.561514,363.056423 137.461514,363.706423 137.391514,364.316423 C137.323931,364.860577 137.287206,365.408119 137.281514,365.956423 C137.281514,366.786423 137.281514,367.606423 137.371514,368.436423 C137.461514,369.266423 137.451514,370.136423 137.451514,371.066423 C137.451514,371.486423 137.451514,371.856423 137.451514,372.186423 C137.431989,372.432033 137.395232,372.675967 137.341514,372.916423 C137.220647,373.434336 136.981003,373.917048 136.641514,374.326423 C136.24457,374.677188 135.718068,374.844217 135.191514,374.786423 C134.811561,374.801566 134.432028,374.747347 134.071514,374.626423 C133.825244,374.544549 133.604629,374.399771 133.431514,374.206423 C133.281133,374.035851 133.177743,373.829071 133.131514,373.606423 C133.077981,373.386575 133.044511,373.162322 133.031514,372.936423 L132.761514,368.336423 L132.541514,368.416423 C132.011514,369.096423 131.421514,369.856423 130.791514,370.696423 C130.164848,371.542408 129.465527,372.332073 128.701514,373.056423 C127.953756,373.778253 127.112999,374.39705 126.201514,374.896423 C125.305482,375.392844 124.295807,375.647848 123.271514,375.636423 C122.995797,375.624818 122.723102,375.574319 122.461514,375.486423 C122.119904,375.370883 121.78591,375.233945 121.461514,375.076423 C121.118154,374.915642 120.784276,374.735347 120.461514,374.536423 C120.18757,374.362585 119.926859,374.168722 119.681514,373.956423 C118.831901,373.193736 118.179934,372.236374 117.781514,371.166423 C117.414152,370.149766 117.224714,369.077412 117.221514,367.996423 C117.221766,367.393313 117.271938,366.791257 117.371514,366.196423 C117.471514,365.596423 117.581514,365.016423 117.711514,364.456423 C117.841514,363.896423 117.981514,363.376423 118.141514,362.876423 C118.301514,362.376423 118.421514,361.946423 118.511514,361.556423 C118.821514,360.336423 119.101514,359.266423 119.341514,358.336423 C119.581514,357.406423 119.801514,356.606423 119.991514,355.906423 C120.181514,355.206423 120.331514,354.616423 120.461514,354.116423 L120.701514,352.836423 Z" id="Path" stroke="#FFFFFF" fill="#FFFFFF"></path>
                <path d="M144.671514,370.186423 C144.787638,370.170523 144.905389,370.170523 145.021514,370.186423 L145.371514,370.296423 L145.811514,370.406423 C146.019562,370.442163 146.230432,370.458899 146.441514,370.456423 C147.297003,370.444441 148.149986,370.360815 148.991514,370.206423 C149.884529,370.05529 150.766482,369.844824 151.631514,369.576423 C152.366229,369.351576 153.076469,369.053409 153.751514,368.686423 C154.351514,368.356423 154.681514,368.006423 154.751514,367.686423 C154.798102,367.520152 154.824954,367.348974 154.831514,367.176423 C154.814739,366.868682 154.66963,366.582093 154.431514,366.386423 C154.128258,366.107191 153.792513,365.865455 153.431514,365.666423 C153.005302,365.428675 152.564414,365.218251 152.111514,365.036423 L150.801514,364.496423 L149.971514,364.156423 C149.542269,363.991128 149.127507,363.790437 148.731514,363.556423 C148.328388,363.325388 147.949777,363.053995 147.601514,362.746423 C147.245159,362.429094 146.932435,362.065932 146.671514,361.666423 C146.399296,361.224551 146.200075,360.741693 146.081514,360.236423 C146.01291,360.013623 145.959455,359.786438 145.921514,359.556423 C145.880444,359.315283 145.860369,359.071034 145.861514,358.826423 C145.886151,358.315543 146.033656,357.818143 146.291514,357.376423 C146.600816,356.793039 146.983968,356.251921 147.431514,355.766423 C147.93073,355.208318 148.475983,354.693171 149.061514,354.226423 C149.651468,353.753688 150.292053,353.347872 150.971514,353.016423 C151.464847,352.676423 151.934847,352.366423 152.381514,352.086423 C152.820307,351.81965 153.278222,351.585679 153.751514,351.386423 C154.21167,351.192445 154.686494,351.035285 155.171514,350.916423 C155.67,350.801748 156.180009,350.744708 156.691514,350.746386 C157.171514,350.746386 157.691514,350.746386 158.271514,350.826423 C158.805344,350.862848 159.330942,350.977401 159.831514,351.166423 C160.282401,351.331529 160.68707,351.602452 161.011514,351.956423 C161.341044,352.346043 161.509184,352.846886 161.481514,353.356423 C161.469315,353.897891 161.360963,354.43288 161.161514,354.936423 C161.061345,355.204711 160.923277,355.457274 160.751514,355.686423 C160.62049,355.879717 160.4049,355.998663 160.171514,356.006423 C159.847156,356.020268 159.525289,355.944128 159.241514,355.786423 C159.010356,355.646046 158.789768,355.488961 158.581514,355.316423 C158.392969,355.142607 158.192479,354.982214 157.981514,354.836423 C157.751304,354.682487 157.478232,354.605467 157.201514,354.616423 C156.760579,354.62624 156.323112,354.696908 155.901514,354.826423 C155.380105,354.970339 154.871662,355.15766 154.381514,355.386423 C153.855292,355.624602 153.344316,355.895119 152.851514,356.196423 C152.387951,356.501966 151.943767,356.835939 151.521514,357.196423 C151.151072,357.490459 150.815549,357.825982 150.521514,358.196423 C150.305102,358.43736 150.174941,358.743413 150.151514,359.066423 C150.144828,359.320459 150.242388,359.566166 150.421514,359.746423 C150.619032,359.938962 150.849304,360.094733 151.101514,360.206423 C151.500132,360.423025 151.910802,360.616674 152.331514,360.786423 L153.731514,361.376423 L155.101514,361.956423 L156.261514,362.496423 C156.701514,362.726423 157.091514,362.946423 157.441514,363.166423 C157.764245,363.368432 158.062847,363.606643 158.331514,363.876423 C158.569484,364.133769 158.759176,364.431857 158.891514,364.756423 C159.021009,365.122393 159.085317,365.508238 159.081514,365.896423 C159.080172,366.110678 159.063463,366.32456 159.031514,366.536423 C159.031514,366.746423 158.951514,366.986423 158.891514,367.266423 C158.824527,367.555407 158.737654,367.839416 158.631514,368.116423 C158.511514,368.436423 158.381514,368.769757 158.241514,369.116423 C158.116435,369.408628 157.972809,369.69254 157.811514,369.966423 C157.720634,370.152238 157.598909,370.3213 157.451514,370.466423 C156.763779,371.089339 156.013067,371.638968 155.211514,372.106423 C154.350033,372.620491 153.450785,373.068443 152.521514,373.446423 C151.613633,373.823107 150.67738,374.127389 149.721514,374.356423 C148.885055,374.572793 148.025451,374.686959 147.161514,374.696423 C146.721794,374.691188 146.285947,374.613479 145.871514,374.466423 C145.411914,374.324554 144.974361,374.11924 144.571514,373.856423 C144.195264,373.623807 143.857829,373.333614 143.571514,372.996423 C143.319794,372.72359 143.177395,372.367593 143.171514,371.996423 C143.178681,371.805241 143.226402,371.617766 143.311514,371.446423 C143.410035,371.244498 143.534413,371.056252 143.681514,370.886423 C143.817971,370.71956 143.976025,370.571595 144.151514,370.446423 C144.288899,370.30133 144.473008,370.209276 144.671514,370.186423 L144.671514,370.186423 Z" id="Path" stroke="#FFFFFF" fill="#FFFFFF"></path>
                <path d="M190.001514,367.206423 C190.014124,366.131448 190.12796,365.060049 190.341514,364.006423 C190.568817,362.801624 190.969656,361.63616 191.531514,360.546423 C192.308186,358.989749 193.176373,357.480439 194.131514,356.026423 C195.043287,354.641769 196.028009,353.306552 197.081514,352.026423 C198.01072,350.876677 199.012781,349.787771 200.081514,348.766423 C200.954463,347.921191 201.916793,347.173457 202.951514,346.536423 L202.951514,346.536423 L204.751514,345.416423 C205.381641,345.02468 206.032602,344.667486 206.701514,344.346423 C207.345159,344.02274 208.014023,343.75185 208.701514,343.536423 C209.348916,343.333609 210.023092,343.229112 210.701514,343.226399 C211.373129,343.224285 212.037626,343.364 212.651514,343.636423 C213.25755,343.908252 213.807091,344.291574 214.271514,344.766423 C214.736116,345.250003 215.105848,345.816472 215.361514,346.436423 C215.631585,347.068642 215.771045,347.748937 215.771514,348.436423 C215.780472,348.831762 215.750325,349.227017 215.681514,349.616423 C215.648429,349.849532 215.555395,350.070058 215.411514,350.256423 C215.299099,350.402787 215.13411,350.499628 214.951514,350.526423 C214.738513,350.543264 214.524514,350.543264 214.311514,350.526423 C214.014027,350.542437 213.719347,350.461751 213.471514,350.296423 C213.267431,350.149766 213.099782,349.958168 212.981514,349.736423 C212.854135,349.507552 212.759863,349.261771 212.701514,349.006423 C212.645811,348.756975 212.568864,348.51275 212.471514,348.276423 C212.392986,348.070728 212.277787,347.880988 212.131514,347.716423 C211.983097,347.561846 211.775647,347.478138 211.561514,347.486423 C210.836706,347.498538 210.120753,347.647836 209.451514,347.926423 C208.647023,348.244225 207.873716,348.635899 207.141514,349.096423 C206.322596,349.602425 205.534535,350.156739 204.781514,350.756423 C203.991514,351.386423 203.241514,352.016423 202.531514,352.666423 C201.821514,353.316423 201.161514,353.956423 200.531514,354.586423 C199.901514,355.216423 199.401514,355.786423 198.961514,356.296423 C198.324904,357.101544 197.730762,357.93935 197.181514,358.806423 C196.65733,359.640942 196.196053,360.513357 195.801514,361.416423 C195.413664,362.291623 195.112232,363.202615 194.901514,364.136423 C194.683206,365.090875 194.575829,366.06734 194.581514,367.046423 C194.571996,367.727388 194.683738,368.404612 194.911514,369.046423 C195.101459,369.572132 195.342618,370.077897 195.631514,370.556423 C195.890569,371.006573 196.29145,371.358223 196.771514,371.556423 C197.29099,371.756611 197.845011,371.851781 198.401514,371.836423 C199.685267,371.846292 200.96624,371.715513 202.221514,371.446423 C203.368012,371.209641 204.492122,370.875085 205.581514,370.446423 C206.662771,369.999168 207.711923,369.477933 208.721514,368.886423 C209.721514,368.286423 210.791514,367.646423 211.881514,366.966423 L212.511514,366.966423 C212.739101,366.966972 212.962799,367.025478 213.161514,367.136423 C213.377742,367.250175 213.57371,367.39884 213.741514,367.576423 C213.912656,367.750547 214.051482,367.953707 214.151514,368.176423 C214.257677,368.398006 214.312374,368.640723 214.311514,368.886423 C214.293282,369.473659 214.070441,370.036068 213.681514,370.476423 C213.21246,371.050866 212.667467,371.558854 212.061514,371.986423 C211.355508,372.49538 210.609779,372.94683 209.831514,373.336423 C209.011514,373.756423 208.191514,374.136423 207.391514,374.456423 C206.591514,374.776423 205.831514,375.056423 205.141514,375.286423 C204.591559,375.474331 204.030482,375.627959 203.461514,375.746423 L202.461514,375.976423 C202.121514,376.056423 201.731514,376.126423 201.271514,376.196423 C200.811514,376.266423 200.271514,376.326423 199.641514,376.366423 C199.011514,376.406423 198.221514,376.426423 197.261514,376.426423 C196.715312,376.434616 196.172473,376.339619 195.661514,376.146423 C195.201446,375.980521 194.76191,375.762431 194.351514,375.496423 C193.99168,375.268489 193.656542,375.00373 193.351514,374.706423 C193.081514,374.426423 192.871514,374.186423 192.711514,373.996423 C191.83697,373.014028 191.127742,371.896149 190.611514,370.686423 C190.195976,369.573787 189.989184,368.39406 190.001514,367.206423 Z" id="Path" stroke="#009444" fill="#009444"></path>
                <path d="M219.171514,371.986423 C219.381514,370.846423 219.621514,369.606423 219.901514,368.236423 C220.181514,366.866423 220.461514,365.496423 220.751514,364.106423 C221.041514,362.716423 221.331514,361.336423 221.601514,359.986423 C221.871514,358.636423 222.111514,357.416423 222.311514,356.296423 C222.303245,356.153209 222.303245,356.009637 222.311514,355.866423 L222.311514,355.466423 C222.314944,354.961555 222.348336,354.457335 222.411514,353.956423 C222.470753,353.487641 222.56095,353.023293 222.681514,352.566423 C222.785376,352.11196 222.98668,351.685468 223.271514,351.316423 C223.567609,351.071137 223.948511,350.952554 224.331514,350.986423 C224.72721,350.969735 225.119389,351.066912 225.461514,351.266423 C225.743805,351.452493 225.974318,351.70709 226.131514,352.006423 C226.303026,352.336841 226.41154,352.696296 226.451514,353.066423 C226.500308,353.474577 226.523687,353.885369 226.521514,354.296423 C226.521514,354.526423 226.521514,354.776423 226.521514,355.056423 C226.521514,355.336423 226.521514,355.546423 226.521514,355.706423 C226.981514,355.236423 227.461514,354.756423 227.971514,354.256423 C228.477432,353.769115 229.022607,353.32428 229.601514,352.926423 C230.173139,352.52722 230.786804,352.191883 231.431514,351.926423 C232.066533,351.667796 232.745848,351.535329 233.431514,351.536423 C233.706727,351.53779 233.981226,351.56457 234.251514,351.616423 C234.525629,351.660715 234.796295,351.724204 235.061514,351.806423 C235.402251,351.892569 235.736428,352.002847 236.061514,352.136423 C236.418267,352.282023 236.754451,352.473647 237.061514,352.706423 C237.607137,353.119334 238.065902,353.63587 238.411514,354.226423 C238.764437,354.783127 238.954921,355.42731 238.961514,356.086423 C238.956328,356.355446 238.90909,356.622002 238.821514,356.876423 C238.725377,357.15579 238.587115,357.418826 238.411514,357.656423 C238.248715,357.884269 238.049359,358.083625 237.821514,358.246423 C237.5967,358.396984 237.332086,358.477065 237.061514,358.476423 C236.719062,358.460611 236.381397,358.389702 236.061514,358.266423 C235.696058,358.148767 235.356583,357.962056 235.061514,357.716423 C234.928259,357.594836 234.810685,357.457106 234.711514,357.306423 C234.587537,357.133349 234.474002,356.953028 234.371514,356.766423 L234.071514,356.266423 C234.014719,356.160183 233.947738,356.059711 233.871514,355.966423 L233.601514,355.966423 L233.331514,355.966423 C232.503317,355.966642 231.689633,356.183854 230.971514,356.596423 C230.218069,357.031776 229.516852,357.551817 228.881514,358.146423 C228.233982,358.765757 227.635517,359.434433 227.091514,360.146423 C226.551514,360.836423 226.091514,361.456423 225.671514,362.006423 C225.341514,363.316423 224.981514,364.716423 224.581514,366.196423 C224.181514,367.676423 223.791514,369.196423 223.401514,370.856423 L223.401514,371.466423 C223.401514,371.956423 223.401514,372.466423 223.401514,372.956423 C223.376072,373.413341 223.274684,373.862828 223.101514,374.286423 C222.903568,374.552968 222.642381,374.766041 222.341514,374.906423 C221.980857,375.083628 221.583303,375.172735 221.181514,375.166423 C220.592189,375.209307 220.019669,374.958596 219.651514,374.496423 C219.310762,374.044829 219.1312,373.492058 219.141514,372.926423 C219.105599,372.613305 219.115706,372.296615 219.171514,371.986423 Z" id="Path" stroke="#FFFFFF" fill="#FFFFFF"></path>
                <path d="M251.721514,373.446423 C251.732753,372.879442 251.789603,372.314284 251.891514,371.756423 C252.023187,370.946609 252.083419,370.126787 252.071514,369.306423 C251.531514,369.696423 250.941514,370.156423 250.291514,370.696423 C249.641514,371.236423 248.971514,371.696423 248.291514,372.226423 C247.633136,372.69285 246.937449,373.104242 246.211514,373.456423 C245.610511,373.766427 244.947488,373.93731 244.271514,373.956423 C243.802512,373.95992 243.33618,373.885578 242.891514,373.736423 C242.486878,373.6107 242.107694,373.414337 241.771514,373.156423 C241.022494,372.602322 240.390381,371.905639 239.911514,371.106423 C239.518635,370.37583 239.322224,369.555729 239.341514,368.726423 C239.339477,368.300626 239.376297,367.87553 239.451514,367.456423 C239.521514,367.026423 239.631514,366.516423 239.771514,365.956423 C240.383034,363.40718 241.461201,360.993172 242.951514,358.836423 C244.45906,356.651727 246.34952,354.757879 248.531514,353.246423 C249.301984,352.687499 250.180775,352.29579 251.111514,352.096423 C251.954305,351.926339 252.811736,351.839256 253.671514,351.836423 C254.089301,351.840979 254.506554,351.867683 254.921514,351.916423 L256.171514,352.056423 L257.081514,351.886423 C257.330223,351.854098 257.580714,351.837399 257.831514,351.836423 C258.243884,351.825696 258.654528,351.89357 259.041514,352.036423 C259.340113,352.143388 259.607931,352.321933 259.821514,352.556423 C260.019076,352.774992 260.165908,353.03451 260.251514,353.316423 C260.340002,353.60129 260.383855,353.898139 260.381719,354.196423 C260.385842,354.607511 260.321629,355.016447 260.191514,355.406423 L259.801514,356.556423 L256.621514,369.386423 C256.551514,370.076423 256.491514,370.716423 256.451514,371.306423 C256.407301,371.858558 256.306779,372.404728 256.151514,372.936423 C256.151514,373.076423 256.041514,373.266423 255.971514,373.486423 C255.893958,373.715885 255.775366,373.92935 255.621514,374.116423 C255.451577,374.32549 255.244844,374.501722 255.011514,374.636423 C254.721499,374.796758 254.392485,374.872951 254.061514,374.856423 C253.659066,374.866869 253.256681,374.833337 252.861514,374.756423 C252.609981,374.717327 252.370621,374.621583 252.161514,374.476423 C252.012876,374.371917 251.903693,374.220469 251.851514,374.046423 C251.779434,373.85375 251.735646,373.651652 251.721514,373.446423 L251.721514,373.446423 Z M243.621514,366.096423 C243.530276,366.424941 243.460132,366.758956 243.411514,367.096423 C243.340609,367.516091 243.303822,367.940814 243.301422,368.366423 C243.298655,368.767596 243.362873,369.166425 243.491514,369.546423 C243.625928,369.895699 243.979772,370.109651 244.351514,370.066423 C245.014825,370.069724 245.669442,369.915495 246.261514,369.616423 C246.851146,369.315557 247.407534,368.95357 247.921514,368.536423 C248.621514,367.966423 249.331514,367.336423 250.051514,366.626423 C250.773492,365.919565 251.457771,365.175202 252.101514,364.396423 C252.72571,363.642283 253.293894,362.843484 253.801514,362.006423 C254.267088,361.240491 254.630185,360.416799 254.881514,359.556423 C255.025333,359.020488 255.135547,358.476096 255.211514,357.926423 C255.294559,357.380276 255.338006,356.828838 255.341613,356.276423 C255.344096,356.061639 255.296139,355.849257 255.201514,355.656423 C255.098114,355.446081 254.874661,355.322383 254.641514,355.346423 C253.819243,355.352445 253.005315,355.511839 252.241514,355.816423 C251.418902,356.130089 250.639358,356.546742 249.921514,357.056423 C249.151975,357.593495 248.438387,358.206578 247.791514,358.886423 C247.118492,359.592693 246.503187,360.351793 245.951514,361.156423 C245.4117,361.943208 244.9368,362.772611 244.531514,363.636423 C244.153146,364.426682 243.848521,365.250174 243.621514,366.096423 L243.621514,366.096423 Z" id="Shape" stroke="#FFFFFF" fill="#FFFFFF"></path>
                <path d="M268.621514,376.686423 C268.248461,376.695484 267.878504,376.616697 267.541514,376.456423 C267.231659,376.307975 266.958469,376.092838 266.741514,375.826423 C266.519675,375.555201 266.347066,375.247212 266.231514,374.916423 C266.109576,374.562615 266.048708,374.190644 266.051514,373.816423 C266.054628,373.51103 266.084746,373.20651 266.141514,372.906423 C266.211514,372.576423 266.301514,372.176423 266.431514,371.706423 C266.481514,371.496423 266.561514,371.176423 266.651514,370.756423 C266.741514,370.336423 266.851514,369.856423 266.941514,369.316423 C267.031514,368.776423 267.141514,368.216423 267.251514,367.616423 C267.361514,367.016423 267.451514,366.436423 267.541514,365.866423 C267.631514,365.296423 267.701514,364.766423 267.751514,364.286423 C267.801514,363.806423 267.821514,363.386423 267.821514,363.066423 C267.830863,362.929917 267.830863,362.79293 267.821514,362.656423 C267.821514,362.406423 267.611514,362.246423 267.291514,362.156423 L266.291514,361.856423 C265.92707,361.755929 265.586852,361.582418 265.291514,361.346423 C264.967455,361.056265 264.800444,360.629458 264.841514,360.196423 C264.83834,359.763528 264.944998,359.336897 265.151514,358.956423 C265.315531,358.599814 265.593433,358.30784 265.941514,358.126423 C266.332388,357.940734 266.758808,357.841805 267.191514,357.836423 C267.654258,357.816123 268.115214,357.766019 268.571514,357.686423 C268.830115,357.66138 269.045675,357.477755 269.111514,357.226423 C269.213279,356.964902 269.300086,356.697804 269.371514,356.426423 C269.561514,355.676423 269.781514,354.866423 270.001514,354.006423 C270.221514,353.146423 270.491514,352.246423 270.791514,351.346423 C271.091514,350.446423 271.431514,349.566423 271.791514,348.706423 C272.142847,347.884119 272.553947,347.088657 273.021514,346.326423 C273.739843,345.349853 274.525062,344.424298 275.371514,343.556423 C276.179892,342.714594 277.074847,341.960418 278.041514,341.306423 C278.968215,340.669044 279.977516,340.161029 281.041514,339.796423 C282.135618,339.422253 283.285241,339.236285 284.441514,339.246423 C285.657048,339.19631 286.866154,339.447062 287.961514,339.976423 C288.891016,340.485444 289.659895,341.243932 290.181514,342.166423 C290.306908,342.379907 290.394844,342.613275 290.441514,342.856423 C290.492801,343.093045 290.519609,343.334315 290.521656,343.576423 C290.525009,343.993232 290.464297,344.408094 290.341514,344.806423 C290.225893,345.162926 290.057343,345.500025 289.841514,345.806423 C289.63907,346.07788 289.383991,346.30575 289.091514,346.476423 C288.824185,346.63193 288.520777,346.714677 288.211514,346.716423 C287.858428,346.730667 287.509448,346.636442 287.211514,346.446423 C286.971968,346.268881 286.7712,346.044293 286.621514,345.786423 C286.458297,345.518611 286.333733,345.229084 286.251514,344.926423 C286.173029,344.633943 286.07617,344.346706 285.961514,344.066423 C285.866325,343.820921 285.723595,343.596631 285.541514,343.406423 C285.337317,343.213723 285.061517,343.115741 284.781514,343.136423 C284.408588,343.141837 284.03698,343.182011 283.671514,343.256423 C283.260938,343.342209 282.863958,343.483507 282.491514,343.676423 C281.531085,344.178704 280.614531,344.760749 279.751514,345.416423 C278.851232,346.108403 278.059186,346.930783 277.401514,347.856423 C276.601273,348.987872 275.930416,350.205478 275.401514,351.486423 C274.700048,353.199185 274.134958,354.964674 273.711514,356.766423 C273.691311,356.804857 273.674578,356.845016 273.661514,356.886423 C273.659528,356.919727 273.659528,356.95312 273.661514,356.986423 C273.661514,356.986423 273.721514,356.986423 273.851514,356.986423 C274.319438,356.990835 274.787137,356.964109 275.251514,356.906423 L276.581514,356.716423 C277.021514,356.636423 277.461514,356.576423 277.901514,356.516423 C278.375888,356.458174 278.853602,356.431449 279.331514,356.436423 C279.701514,356.436423 280.051514,356.436423 280.331514,356.436423 C280.620195,356.465436 280.903141,356.536173 281.171514,356.646423 C281.394144,356.745161 281.587165,356.900268 281.731514,357.096423 C281.880686,357.328365 281.954071,357.60094 281.941514,357.876423 C281.935241,358.118797 281.905095,358.359963 281.851514,358.596423 C281.799914,358.879662 281.712548,359.1552 281.591514,359.416423 C281.470231,359.677746 281.311939,359.920236 281.121514,360.136423 C280.944994,360.344079 280.700461,360.482294 280.431514,360.526423 C279.932597,360.629712 279.428557,360.706487 278.921514,360.756423 L277.221514,360.956423 C276.601514,361.026423 275.921514,361.136423 275.221514,361.266423 C274.521514,361.396423 273.631514,361.606423 272.711514,361.866423 C272.423165,362.942086 272.199432,364.034037 272.041514,365.136423 C271.891514,366.216423 271.751514,367.296423 271.641514,368.366423 C271.531514,369.436423 271.401514,370.506423 271.261514,371.586423 C271.118777,372.67955 270.918499,373.764389 270.661514,374.836423 C270.61336,375.058733 270.528895,375.271586 270.411514,375.466423 C270.290854,375.67515 270.142882,375.866841 269.971514,376.036423 C269.802299,376.207023 269.606394,376.348885 269.391514,376.456423 C269.157558,376.594998 268.893144,376.673979 268.621514,376.686423 Z" id="Path" stroke="#FFFFFF" fill="#FFFFFF"></path>
                <path d="M287.271514,366.926423 C287.282007,365.497919 287.436116,364.074091 287.731514,362.676423 C288.041514,361.216423 288.371514,359.806423 288.731514,358.456423 C288.295762,358.441527 287.863056,358.377795 287.441514,358.266423 C287.02851,358.159259 286.629216,358.00491 286.251514,357.806423 C285.914966,357.624713 285.616269,357.380325 285.371514,357.086423 C285.143069,356.804018 285.022549,356.449548 285.031514,356.086423 C285.037994,355.895946 285.071668,355.707372 285.131514,355.526423 C285.194596,355.291618 285.288762,355.066292 285.411514,354.856423 C285.532442,354.642465 285.69177,354.452627 285.881514,354.296423 C286.066688,354.142868 286.30101,354.06121 286.541514,354.066423 L289.801514,354.066423 C290.077229,354.088549 290.334251,353.925361 290.431514,353.666423 C290.5378,353.408941 290.627974,353.145098 290.701514,352.876423 C290.911514,351.936423 291.111514,351.116423 291.291514,350.426423 C291.471514,349.736423 291.641514,349.156423 291.771514,348.676423 C291.901514,348.196423 292.001514,347.816423 292.071514,347.516423 C292.138716,347.282092 292.175682,347.040131 292.181514,346.796423 C292.181514,346.586423 292.181514,346.376423 292.181514,346.186423 C292.181514,345.996423 292.181514,345.726423 292.181514,345.386423 L292.181514,345.136423 C292.181514,345.006423 292.181514,344.836423 292.181514,344.626423 C292.227137,344.319335 292.304209,344.017749 292.411514,343.726423 C292.522255,343.398775 292.70704,343.101066 292.951514,342.856423 C293.25389,342.55972 293.668916,342.406815 294.091514,342.436423 C294.482253,342.424851 294.868968,342.518077 295.211514,342.706423 C295.515973,342.877981 295.773543,343.121814 295.961514,343.416423 C296.164771,343.721878 296.313634,344.060203 296.401514,344.416423 C296.499775,344.781692 296.550196,345.158172 296.551514,345.536423 C296.55563,345.906569 296.515342,346.275872 296.431514,346.636423 L294.621514,353.446423 C295.501514,353.296423 296.271514,353.166423 296.951514,353.036423 L299.001514,352.646423 C299.751514,352.496423 300.391514,352.356423 300.931514,352.226423 L302.331514,351.896423 L303.331514,351.686423 C303.551015,351.632703 303.775617,351.602532 304.001514,351.596423 C304.265968,351.596871 304.530025,351.616926 304.791514,351.656423 C305.034548,351.688668 305.270864,351.759563 305.491514,351.866423 C305.691007,351.95727 305.863349,352.09859 305.991514,352.276423 C306.131699,352.485933 306.201731,352.734547 306.191514,352.986423 C306.192492,353.332982 306.113839,353.675134 305.961514,353.986423 C305.80741,354.278706 305.604489,354.542503 305.361514,354.766423 C305.115252,354.989323 304.83508,355.171604 304.531514,355.306423 C304.235986,355.437811 303.927685,355.538343 303.611514,355.606423 C303.351514,355.606423 303.011514,355.726423 302.611514,355.826423 L301.241514,356.136423 L299.701514,356.506423 L298.141514,356.896423 L296.231514,357.386423 C295.711514,357.516423 295.231514,357.606423 294.881514,357.676423 L293.971514,357.816423 C293.783275,357.849219 293.592587,357.865946 293.401514,357.866423 C293.091514,358.796423 292.821514,359.706423 292.601514,360.596423 C292.381514,361.486423 292.181514,362.316423 292.021514,363.086423 C291.861514,363.856423 291.761514,364.546423 291.681514,365.156423 C291.61996,365.627499 291.583243,366.101488 291.571514,366.576423 C291.568148,366.999937 291.611748,367.422519 291.701514,367.836423 C291.771445,368.193369 291.910744,368.533122 292.111514,368.836423 C292.308771,369.13261 292.581484,369.370802 292.901514,369.526423 C293.29165,369.711038 293.72012,369.80016 294.151514,369.786423 C295.042724,369.777159 295.915609,369.532199 296.681514,369.076423 C297.546845,368.582035 298.34647,367.980636 299.061514,367.286423 C299.828115,366.546203 300.543121,365.754351 301.201514,364.916423 C301.871514,364.056423 302.491514,363.236423 303.061514,362.466423 C303.211896,362.193305 303.499737,362.024439 303.811514,362.026423 C303.933272,362.026017 304.054475,362.042851 304.171514,362.076423 C304.312989,362.111606 304.447997,362.168984 304.571514,362.246423 C304.700135,362.324378 304.809516,362.430341 304.891514,362.556423 C304.983664,362.692052 305.032483,362.852454 305.031514,363.016423 C305.044613,363.115994 305.044613,363.216852 305.031514,363.316423 C304.752692,364.360737 304.349824,365.367906 303.831514,366.316423 C303.291514,367.316423 302.731514,368.316423 302.161514,369.316423 C301.950851,369.69541 301.695714,370.047902 301.401514,370.366423 C301.087748,370.718766 300.753856,371.052658 300.401514,371.366423 C300.030424,371.68598 299.643253,371.986371 299.241514,372.266423 C298.831514,372.556423 298.451514,372.806423 298.091514,373.036423 C297.479174,373.422751 296.801365,373.693875 296.091514,373.836423 C295.397475,373.981212 294.690492,374.054925 293.981514,374.056423 C293.014275,374.07595 292.054691,373.881301 291.171514,373.486423 C290.376093,373.123455 289.66961,372.591033 289.101514,371.926423 C288.52912,371.250441 288.094309,370.469139 287.821514,369.626423 C287.499283,368.760388 287.313732,367.849498 287.271514,366.926423 L287.271514,366.926423 Z" id="Path" stroke="#FFFFFF" fill="#FFFFFF"></path>
                <path d="M367.031514,376.136423 C366.131514,379.629757 364.004847,381.37309 360.651514,381.366442 C358.460371,381.286605 356.304828,380.787605 354.301514,379.896423 C351.364931,378.661987 348.503343,377.256236 345.731514,375.686423 C342.421514,373.866423 340.391514,372.766423 339.621514,372.396423 C338.23874,374.220494 336.080461,375.290378 333.791514,375.286423 C332.960588,375.312358 332.147965,375.039118 331.501514,374.516423 C330.867907,373.999371 330.515722,373.213442 330.551514,372.396423 C330.525349,371.50106 330.921652,370.645489 331.621514,370.086423 C332.316886,369.500056 333.202118,369.187203 334.111514,369.206423 C335.48134,369.276961 336.831372,369.563843 338.111514,370.056423 C338.541773,368.426251 338.727135,366.741142 338.661514,365.056423 C338.661514,364.586423 338.661514,363.936423 338.661514,363.056423 C338.661514,362.176423 338.661514,361.616423 338.661514,361.286423 L338.661514,353.566423 C338.635246,351.34064 339.380855,349.174488 340.771514,347.436423 C342.062768,345.698664 344.117125,344.69572 346.281514,344.746423 C347.808077,344.710555 349.298538,345.213276 350.491514,346.166423 C351.658206,347.079217 352.316444,348.496104 352.261514,349.976423 C352.248672,350.704255 351.995534,351.407416 351.541514,351.976423 C351.151344,352.579998 350.489859,352.953719 349.771514,352.976423 C349.118381,352.984675 348.488781,352.732835 348.021514,352.276423 C347.540262,351.847912 347.270004,351.2307 347.281514,350.586423 C347.269602,350.197182 347.444226,349.825641 347.751514,349.586423 C348.069026,349.33287 348.465263,349.198432 348.871514,349.206423 C349.699554,349.191591 350.451081,349.688633 350.761514,350.456423 C350.816138,350.226631 350.849611,349.992319 350.861514,349.756423 C350.841445,348.759181 350.342756,347.832513 349.521514,347.266423 C348.721667,346.60387 347.719992,346.233533 346.681514,346.216423 C345.589423,346.154957 344.533816,346.619573 343.841514,347.466423 C343.155775,348.333827 342.716996,349.370311 342.571514,350.466423 C342.361344,351.943445 342.267722,353.434714 342.291514,354.926423 C342.291514,355.656423 342.291514,356.786423 342.341514,358.316423 C342.391514,359.846423 342.391514,361.006423 342.391514,361.806423 C342.391514,366.15309 341.82818,369.226423 340.701514,371.026423 C341.36818,371.286423 343.344847,372.216423 346.631514,373.816423 C349.91818,375.416423 352.741514,376.646423 355.101514,377.506423 C357.013959,378.27333 359.042862,378.709544 361.101514,378.796423 C362.173756,378.800624 363.228524,378.524867 364.161514,377.996423 C365.06671,377.525369 365.702092,376.660954 365.881514,375.656423 L367.031514,376.136423 Z M337.621514,371.356423 C336.550694,370.95309 335.42417,370.716992 334.281514,370.656423 C332.791514,370.656423 332.041514,371.236423 332.041514,372.396423 C332.021972,372.826582 332.2167,373.238506 332.561514,373.496423 C332.910994,373.764359 333.341235,373.905422 333.781514,373.896423 C335.448206,373.873923 336.948667,372.881431 337.621514,371.356423 L337.621514,371.356423 Z" id="Shape" stroke="#1B75BC" fill="#1B75BC"></path>
                <path d="M361.471514,366.926423 C361.480547,365.497301 361.63806,364.072986 361.941514,362.676423 C362.241514,361.216423 362.571514,359.806423 362.941514,358.456423 C362.505829,358.440783 362.073206,358.377063 361.651514,358.266423 C361.23851,358.159259 360.839216,358.00491 360.461514,357.806423 C360.124966,357.624713 359.826269,357.380325 359.581514,357.086423 C359.353069,356.804018 359.232549,356.449548 359.241514,356.086423 C359.247994,355.895946 359.281668,355.707372 359.341514,355.526423 C359.408958,355.293131 359.502904,355.068333 359.621514,354.856423 C359.742442,354.642465 359.90177,354.452627 360.091514,354.296423 C360.279939,354.148721 360.512102,354.067816 360.751514,354.066423 L364.011514,354.066423 C364.287229,354.088549 364.544251,353.925361 364.641514,353.666423 C364.7478,353.408941 364.837974,353.145098 364.911514,352.876423 C365.121514,351.936423 365.321514,351.116423 365.511514,350.426423 L365.981514,348.676423 C366.111514,348.196423 366.211514,347.816423 366.281514,347.516423 C366.348716,347.282092 366.385682,347.040131 366.391514,346.796423 C366.401856,346.593222 366.401856,346.389625 366.391514,346.186423 C366.391514,345.986423 366.391514,345.726423 366.391514,345.386423 L366.391514,345.136423 C366.391514,345.006423 366.391514,344.836423 366.391514,344.626423 C366.44204,344.320343 366.518994,344.019217 366.621514,343.726423 C366.732255,343.398775 366.91704,343.101066 367.161514,342.856423 C367.46389,342.55972 367.878916,342.406815 368.301514,342.436423 C368.692253,342.424851 369.078968,342.518077 369.421514,342.706423 C369.725973,342.877981 369.983543,343.121814 370.171514,343.416423 C370.378151,343.720016 370.52729,344.058969 370.611514,344.416423 C370.709775,344.781692 370.760196,345.158172 370.761514,345.536423 C370.763178,345.924106 370.716143,346.310463 370.621514,346.686423 L368.841514,353.496423 C369.721514,353.346423 370.501514,353.216423 371.181514,353.086423 L373.181514,352.696423 C373.931514,352.546423 374.571514,352.406423 375.111514,352.276423 L376.511514,351.946423 L377.511514,351.736423 C377.731015,351.682703 377.955617,351.652532 378.181514,351.646423 C378.445968,351.646871 378.710025,351.666926 378.971514,351.706423 C379.214548,351.738668 379.450864,351.809563 379.671514,351.916423 C379.871007,352.00727 380.043349,352.14859 380.171514,352.326423 C380.311699,352.535933 380.381731,352.784547 380.371514,353.036423 C380.372492,353.382982 380.293839,353.725134 380.141514,354.036423 C379.98741,354.328706 379.784489,354.592503 379.541514,354.816423 C379.295252,355.039323 379.01508,355.221604 378.711514,355.356423 C378.41655,355.489274 378.108092,355.589858 377.791514,355.656423 C377.531514,355.656423 377.191514,355.776423 376.791514,355.876423 L375.431514,356.186423 L373.881514,356.556423 L372.321514,356.946423 L370.411514,357.436423 C369.891514,357.566423 369.411514,357.656423 369.061514,357.726423 L368.151514,357.866423 C367.963326,357.899612 367.772605,357.916342 367.581514,357.916423 C367.271514,358.846423 367.001514,359.756423 366.781514,360.646423 C366.561514,361.536423 366.361514,362.366423 366.211514,363.136423 C366.061514,363.906423 365.941514,364.596423 365.861514,365.206423 C365.80227,365.677575 365.768887,366.151619 365.761514,366.626423 C365.759848,367.049354 365.800044,367.471411 365.881514,367.886423 C365.956514,368.241829 366.095435,368.58066 366.291514,368.886423 C366.492893,369.178965 366.764541,369.416227 367.081514,369.576423 C367.47165,369.761038 367.90012,369.85016 368.331514,369.836423 C369.222724,369.827159 370.095609,369.582199 370.861514,369.126423 C371.726845,368.632035 372.52647,368.030636 373.241514,367.336423 C374.010787,366.598792 374.725968,365.806746 375.381514,364.966423 C376.051514,364.106423 376.671514,363.286423 377.241514,362.516423 C377.393492,362.244864 377.680319,362.076592 377.991514,362.076423 C378.113272,362.076017 378.234475,362.092851 378.351514,362.126423 C378.492989,362.161606 378.627997,362.218984 378.751514,362.296423 C378.882181,362.375279 378.994653,362.480934 379.081514,362.606423 C379.170715,362.742925 379.216073,362.903425 379.211514,363.066423 C379.218632,363.166297 379.218632,363.26655 379.211514,363.366423 C378.924774,364.409589 378.518762,365.41623 378.001514,366.366423 C377.461514,367.366423 376.901514,368.366423 376.341514,369.366423 C376.12717,369.745575 375.868705,370.098027 375.571514,370.416423 C375.257748,370.768766 374.923856,371.102658 374.571514,371.416423 C374.200424,371.73598 373.813253,372.036371 373.411514,372.316423 C373.001514,372.606423 372.621514,372.856423 372.261514,373.086423 C371.649174,373.472751 370.971365,373.743875 370.261514,373.886423 C369.567475,374.031212 368.860492,374.104925 368.151514,374.106423 C367.184365,374.124962 366.224994,373.930356 365.341514,373.536423 C364.546093,373.173455 363.83961,372.641033 363.271514,371.976423 C362.69912,371.300441 362.264309,370.519139 361.991514,369.676423 C361.674396,368.792873 361.498898,367.864759 361.471514,366.926423 Z" id="Path" stroke="#FFFFFF" fill="#FFFFFF"></path>
                <path d="M384.031514,366.146423 C384.247602,365.250613 384.528338,364.371643 384.871514,363.516423 C385.234043,362.616127 385.668794,361.746625 386.171514,360.916423 C386.71243,360.023357 387.331524,359.180051 388.021514,358.396423 C388.779199,357.536319 389.61623,356.749509 390.521514,356.046423 C391.181704,355.520342 391.869337,355.029653 392.581514,354.576423 C393.286453,354.126433 394.021523,353.725486 394.781514,353.376423 C395.509499,353.046097 396.261695,352.771963 397.031514,352.556423 C397.758771,352.360537 398.508344,352.259697 399.261514,352.256423 C399.738112,352.249424 400.214109,352.293001 400.681514,352.386423 C401.086451,352.473736 401.481722,352.601027 401.861514,352.766423 C402.021514,352.196423 402.461514,350.676423 403.161514,348.186423 C403.861514,345.696423 404.731514,342.256423 405.751514,337.826423 C405.918875,337.407255 406.178659,337.031251 406.511514,336.726423 C406.831941,336.438355 407.250802,336.284415 407.681514,336.296423 C408.000005,336.29277 408.318118,336.319559 408.631514,336.376423 C408.925692,336.43091 409.205092,336.546759 409.451514,336.716423 C409.706164,336.893979 409.909636,337.135388 410.041514,337.416423 C410.198855,337.77529 410.27402,338.164779 410.261514,338.556423 L405.371514,358.096423 C405.186608,358.827218 405.046349,359.568589 404.951514,360.316423 C404.821514,361.256423 404.701514,362.236423 404.591514,363.316423 C404.481514,364.396423 404.381514,365.376423 404.321514,366.396423 C404.261514,367.416423 404.221514,368.276423 404.221514,369.006423 C404.223324,369.915405 404.11929,370.821506 403.911514,371.706423 C403.83052,372.046276 403.726957,372.38035 403.601514,372.706423 C403.510724,372.954126 403.36745,373.179269 403.181514,373.366423 C402.991546,373.540207 402.76128,373.663932 402.511514,373.726423 C402.18396,373.804002 401.848099,373.840946 401.511514,373.836423 C401.138898,373.851102 400.766594,373.800333 400.411514,373.686423 C400.182782,373.613575 399.980889,373.474338 399.831514,373.286423 C399.70399,373.111449 399.630939,372.902732 399.621514,372.686423 C399.621514,372.466423 399.621514,372.226423 399.571514,371.976423 C399.521514,371.726423 399.571514,371.466423 399.521514,371.196423 C399.501101,370.931932 399.429795,370.673872 399.311514,370.436423 L398.511514,370.946423 L397.511514,371.586423 C397.161514,371.806423 396.831514,372.016423 396.511514,372.196423 L395.831514,372.596423 C395.461514,372.806423 395.031514,373.036423 394.561514,373.266423 C394.068992,373.517664 393.561349,373.738088 393.041514,373.926423 C392.486987,374.131889 391.918979,374.29895 391.341514,374.426423 C390.753487,374.554383 390.1533,374.61809 389.551514,374.616455 C388.826308,374.617209 388.106179,374.495497 387.421514,374.256423 C385.987831,373.757778 384.83946,372.664091 384.271514,371.256423 C383.935033,370.393396 383.771926,369.472518 383.791514,368.546423 C383.790917,368.175597 383.810948,367.805025 383.851514,367.436423 C383.877002,367.00231 383.937194,366.570933 384.031514,366.146423 Z M388.241514,365.956423 C388.112777,366.415509 388.045523,366.889646 388.041403,367.366423 C388.039,367.809257 388.079186,368.251302 388.161514,368.686423 C388.230313,369.078201 388.383896,369.450212 388.611514,369.776423 C388.842552,370.08888 389.144053,370.342415 389.491514,370.516423 C389.937251,370.71698 390.423008,370.812763 390.911514,370.796423 C391.251071,370.785933 391.587565,370.728729 391.911514,370.626423 C392.289615,370.50495 392.660253,370.36137 393.021514,370.196423 C393.381514,370.026423 393.721514,369.846423 394.021514,369.666423 L394.831514,369.166423 C395.451514,368.756423 396.021514,368.356423 396.551514,367.966423 C397.065314,367.594371 397.540973,367.172308 397.971514,366.706423 C398.881253,365.731034 399.528169,364.540433 399.851514,363.246423 C400.011514,362.606423 400.151514,362.006423 400.271514,361.476423 C400.391514,360.946423 400.501514,360.416423 400.601514,359.906423 C400.701514,359.396423 400.791514,358.906423 400.871514,358.336423 C400.951514,357.766423 401.031514,357.206423 401.111514,356.556423 C401.014616,356.448664 400.903614,356.35448 400.781514,356.276423 C400.589438,356.180572 400.375914,356.135801 400.161514,356.146423 C399.436436,356.157934 398.716375,356.268971 398.021514,356.476423 C397.193674,356.713411 396.390098,357.028145 395.621514,357.416423 C394.777497,357.834531 393.974059,358.329985 393.221514,358.896423 C392.429847,359.49226 391.696555,360.161933 391.031514,360.896423 C390.352182,361.615598 389.758242,362.410874 389.261514,363.266423 C388.790368,364.10772 388.446627,365.014253 388.241514,365.956423 Z" id="Shape" stroke="#FFFFFF" fill="#FFFFFF"></path>
                <path d="M413.011514,369.216423 C413.620123,369.207815 414.201675,369.467502 414.601514,369.926423 C415.03769,370.430116 415.266427,371.080589 415.241514,371.746423 C415.292347,372.635734 415.026646,373.51432 414.491514,374.226423 C414.032191,374.805053 413.330205,375.137573 412.591514,375.126423 C411.990249,375.139896 411.411808,374.89615 411.001514,374.456423 C410.564148,373.99271 410.330142,373.373496 410.351514,372.736423 C410.333473,371.769087 410.651554,370.825446 411.251514,370.066423 C411.663672,369.512074 412.321078,369.194577 413.011514,369.216423 L413.011514,369.216423 Z" id="Path" stroke="#FFFFFF" fill="#FFFFFF"></path>
            </g>
        </g>
    </g>
</svg>