<?xml version="1.0" encoding="UTF-8"?>
<svg width="406px" height="330px" viewBox="0 0 406 330" version="1.1" xmlns="http://www.w3.org/2000/svg" xmlns:xlink="http://www.w3.org/1999/xlink">
    <title>CCL logo</title>
    <g id="Page-1" stroke="none" stroke-width="1" fill="none" fill-rule="evenodd">
        <g id="CCL-logo" fill-rule="nonzero">
            <path d="M124.26,182.34 L110.38,168.68 L110.38,144.15 C110.38,142.493146 111.723146,141.15 113.38,141.15 L135.12,141.15 C136.776854,141.15 138.12,142.493146 138.12,144.15 L138.12,168.68 L124.26,182.34 Z" id="Path" fill="#231F20"></path>
            <path d="M120.76,185.84 L107.06,199.73 L82.57,199.73 C80.9131458,199.73 79.57,198.386854 79.57,196.73 L79.57,174.94 C79.57,173.283146 80.9131458,171.94 82.57,171.94 L107.06,171.94 L120.76,185.84 Z" id="Path" fill="#231F20"></path>
            <path d="M124.38,189.34 L138.26,203.05 L138.26,227.54 C138.26,229.196854 136.916854,230.54 135.26,230.54 L113.47,230.54 C111.813146,230.54 110.47,229.196854 110.47,227.54 L110.47,203.05 L124.38,189.34 Z" id="Path" fill="#231F20"></path>
            <path d="M127.88,185.84 L141.58,171.96 L166.12,171.96 C167.776854,171.96 169.12,173.303146 169.12,174.96 L169.12,196.77 C169.12,198.426854 167.776854,199.77 166.12,199.77 L141.58,199.77 L127.88,185.84 Z" id="Path" fill="#231F20"></path>
            <circle id="Oval" fill="#231F20" cx="283.7" cy="159.24" r="16.2"></circle>
            <circle id="Oval" fill="#231F20" cx="257.79" cy="186.54" r="16.2"></circle>
            <circle id="Oval" fill="#231F20" cx="285.09" cy="212.45" r="16.2"></circle>
            <circle id="Oval" fill="#231F20" cx="311" cy="185.15" r="16.2"></circle>
            <path d="M187.69,211.94 C186.11,211.94 183.443333,214.033333 179.69,218.22 C175.94,222.42 173.69,225.01 172.9,226.02 C161.093333,239.433333 144.556667,255.356667 123.29,273.79 C111.87,283.51 100.943333,291.05 90.51,296.41 C79.8102307,301.822924 67.9599945,304.567623 55.97,304.41 C38.6366667,304.41 29.97,293.346667 29.97,271.22 C29.97,255.473333 35.4833333,233.1 46.51,204.1 C57.5366667,175.1 71.74,149.626667 89.12,127.68 C101.17,112.4 116.76,98.12 136.7,95.17 C141.6,94.44 144.91,94.82 149.23,97.26 C153.165379,99.5785608 156.822503,102.339858 160.13,105.49 C164.79,109.75 169.13,114.39 173.96,118.4 C175.666808,119.936445 177.634387,121.155598 179.77,122 C181.935554,122.830262 184.356723,122.665681 186.39,121.55 C187.306975,121.026875 187.992683,120.176883 188.31,119.17 C188.523022,117.937012 188.359223,116.66844 187.84,115.53 C184.065135,105.256881 178.506521,95.7307313 171.42,87.39 C166.06,81.04 158.08,77.66 150.36,75.17 C141.3,72.25 132.19,70.76 122.68,72.17 C114.46,73.38 106.45,77.32 99.5,81.76 C88.79,88.61 79.59,97.66 71.4,107.31 C50.92,131.45 33.99,159.943333 20.61,192.79 C7.23,225.636667 0.536666667,252.79 0.53,274.25 C0.407250112,288.34769 5.56975893,301.979996 15,312.46 C24.6533333,323.52 36.9566667,329.053333 51.91,329.06 C69.63,329.06 86.6566667,323.36 102.99,311.96 C119.323333,300.56 137.7,284.316667 158.12,263.23 C166.837821,254.334565 175.0221,244.931493 182.63,235.07 C190.69,224.683333 194.726667,218.48 194.740498,216.46 C194.78,213.45 192.41,211.94 187.69,211.94 Z" id="Path" fill="#ED1C24"></path>
            <path d="M263.9,10.23 C259.561216,4.34338171 252.652234,0.90750301 245.34,1 C238.025224,0.85298306 230.88361,3.23352104 225.12,7.74 L206.47,22.07 C205.66,22.7 204.23,23.82 202.2,25.45 C200.17,27.08 198.64,28.27 197.53,29.13 C194.354647,31.678429 190.934608,33.905976 187.32,35.78 C186.167662,32.3913029 184.523417,29.1904161 182.44,26.28 C180.462934,23.6115812 177.591077,21.7443418 174.35,21.02 C171.016672,20.2362755 167.508484,21.0495541 164.86,23.22 C162.255589,25.0672566 160.667632,28.0284831 160.57,31.22 C160.49532,34.2985568 161.515922,37.3036626 163.45,39.7 C167.69349,45.2876944 174.149147,48.7635368 181.15,49.23 C181.75,52.57 182.76,58.92 184.15,68.23 C185.529686,77.9291796 187.462841,87.5415346 189.94,97.02 C192.12,104.91 195.02,111.27 198.58,115.91 C203.1,121.79 208.75,124.75 215.23,124.740025 C218.898719,124.663348 222.514231,123.847052 225.86,122.34 L227.75,121.54 L225.46,112.94 L222.86,114.24 C220.717726,115.346797 218.18267,115.394837 216,114.37 C213.367676,113.246509 211.072623,111.458021 209.34,109.18 C206.44,105.41 203.86,99.94 201.66,92.94 C199.4,85.74 197.13,76.63 194.91,65.87 C193.25,57.8 192.02,52.08 191.25,48.78 C197.72,47.38 205.59,43.08 215.19,35.71 C217.08,34.25 219.82,32.09 223.56,29.08 C227.13,26.21 229.84,24.08 231.61,22.71 C235.085047,19.96681 238.762154,17.4897767 242.61,15.3 C245.153497,13.864716 248.029606,13.1232729 250.95,13.15 C253.45,13.2 255.56,14.39 257.4,16.78 C258.970835,18.8994068 259.765235,21.4944493 259.65,24.13 C259.659686,25.0880774 259.524836,26.0421377 259.25,26.96 C258.944529,26.1626701 258.523348,25.4146514 258,24.74 C256.945966,23.321488 255.433868,22.311068 253.72,21.88 C251.847298,21.3947359 249.855422,21.8250107 248.35,23.04 C246.249336,24.6161676 244.930101,27.0214027 244.73,29.64 C244.430478,32.202911 245.148614,34.7810187 246.73,36.82 C248.511512,39.0920706 251.274925,40.3714972 254.16,40.26 L254.16,40.26 C256.964477,40.3053969 259.701,39.3955737 261.92,37.68 C266.170716,34.6316653 268.714729,29.7404761 268.77,24.51 C268.861856,19.3276907 267.139152,14.2763142 263.9,10.23 L263.9,10.23 Z M169.68,31.87 C169.664863,31.3008623 169.949601,30.7655549 170.43,30.46 C170.88195,30.0405728 171.464701,29.789813 172.08,29.75 C172.92,29.75 174.02,30.3 175.49,32.21 C176.755298,34.0052321 177.786923,35.9542302 178.56,38.01 C175.401491,38.0947089 172.39627,36.6498193 170.49,34.13 C169.966468,33.4931771 169.680179,32.6943961 169.68,31.87 L169.68,31.87 Z" id="Shape" fill="#1B75BC"></path>
            <path d="M218.55,211.94 C220.13,211.94 222.796667,214.033333 226.55,218.22 C230.3,222.42 232.55,225.01 233.34,226.02 C245.146667,239.433333 261.683333,255.356667 282.95,273.79 C294.37,283.51 305.296667,291.05 315.73,296.41 C326.429769,301.822924 338.280005,304.567623 350.27,304.41 C367.603333,304.41 376.27,293.346667 376.27,271.22 C376.27,255.473333 370.756667,233.1 359.73,204.1 C348.703333,175.1 334.516667,149.626667 317.17,127.68 C305.12,112.4 289.53,98.12 269.59,95.17 C264.69,94.44 261.38,94.82 257.06,97.26 C253.124621,99.5785608 249.467497,102.339858 246.16,105.49 C241.5,109.75 237.16,114.39 232.33,118.4 C230.623192,119.936445 228.655613,121.155598 226.52,122 C224.354446,122.830262 221.933277,122.665681 219.9,121.55 C218.983025,121.026875 218.297317,120.176883 217.98,119.17 C217.766978,117.937012 217.930777,116.66844 218.45,115.53 C222.224865,105.256881 227.783479,95.7307313 234.87,87.39 C240.23,81.04 248.21,77.66 255.93,75.17 C264.99,72.25 274.1,70.76 283.61,72.17 C291.83,73.38 299.84,77.32 306.79,81.76 C317.5,88.61 326.7,97.66 334.89,107.31 C355.37,131.45 372.3,159.943333 385.68,192.79 C399.06,225.636667 405.753333,252.79 405.76,274.25 C405.88275,288.34769 400.720241,301.979996 391.29,312.46 C381.636667,323.52 369.333333,329.053333 354.38,329.06 C336.66,329.06 319.633333,323.36 303.3,311.96 C286.966667,300.56 268.573333,284.316667 248.12,263.23 C239.402179,254.334565 231.2179,244.931493 223.61,235.07 C215.55,224.683333 211.513333,218.48 211.499502,216.46 C211.46,213.45 213.83,211.94 218.55,211.94 Z" id="Path" fill="#009444"></path>
        </g>
    </g>
</svg>