<?xml version="1.0" encoding="UTF-8"?>
<svg width="833px" height="501px" viewBox="0 0 833 501" version="1.1" xmlns="http://www.w3.org/2000/svg" xmlns:xlink="http://www.w3.org/1999/xlink">
    <title>register-bg</title>
    <g id="Page-1" stroke="none" stroke-width="1" fill="none" fill-rule="evenodd">
        <g id="register-bg" fill-rule="nonzero">
            <path d="M43.41965,499.23812 C43.36398,498.993 37.97965,474.44027 48.9758,454.04769 C59.97189,433.65603 83.44406,424.66292 83.6799,424.57406 L84.75265,424.17171 L85.00607,425.28988 C85.06173,425.53499 90.44601,450.08773 79.44992,470.48031 C68.45431,490.87197 44.98166,499.86507 44.74582,499.95394 L43.67257,500.35628 L43.41965,499.23812 Z M83.28146,426.90025 C78.5798,428.92275 60.02365,437.77429 50.73654,454.99697 C41.44845,472.22158 44.2507,492.59072 45.14425,497.62783 C49.84396,495.61025 68.39279,486.77236 77.68918,469.53115 C86.97677,452.30742 84.1755,431.94023 83.28146,426.90025 L83.28146,426.90025 Z" id="Shape" fill="#F1F1F1"></path>
            <path d="M71.04675,463.32719 C51.28619,475.2158 43.67575,498.82988 43.67575,498.82988 C43.67575,498.82988 68.10354,503.16868 87.8641,491.28007 C107.62466,479.39146 115.2351,455.77739 115.2351,455.77739 C115.2351,455.77739 90.80731,451.43858 71.04675,463.32719 Z" id="Path" fill="#F1F1F1"></path>
            <path d="M370.29564,272.74253 C370.905505,269.593806 370.08935,266.336672 368.066788,263.847568 C366.044226,261.358463 363.023022,259.893077 359.81613,259.84572 L350.66531,236.83328 L335.32441,238.9834 L348.70359,271.29992 C348.987209,276.813696 353.350055,281.243897 358.858839,281.611951 C364.367623,281.980004 369.281042,278.169569 370.29564,272.74253 Z" id="Path" fill="#9F616A"></path>
            <path d="M342.03266,264.65667 L337.2792,253.32157 L307.65771,196.93673 L309.26833,92.60445 L309.57756,92.56345 C328.53156,90.05922 341.35574,177.39202 341.89256,181.11129 L360.60809,245.11938 L365.06327,259.22787 L342.03266,264.65667 Z" id="Path" fill="#5C509B"></path>
            <polygon id="Path" fill="#9F616A" points="296.518 484.658 310.92 484.657 317.771 429.106 296.515 429.107"></polygon>
            <path d="M292.84402,479.95584 L321.20702,479.9547 L321.20817,479.9547 C331.190459,479.955236 339.282614,488.047261 339.28331,498.02955 L339.28331,498.61692 L292.84485,498.61864 L292.84402,479.95584 Z" id="Path" fill="#2F2E41"></path>
            <polygon id="Path" fill="#9F616A" points="164.095 462.715 175.912 470.949 213.294 429.291 195.854 417.138"></polygon>
            <path d="M163.76969,456.75699 L187.04022,472.97253 L187.04116,472.97318 C195.230627,478.680962 197.243085,489.946571 191.53631,498.13674 L191.20048,498.61864 L153.10002,472.06901 L163.76969,456.75699 Z" id="Path" fill="#2F2E41"></path>
            <path d="M288.60257,471.60041 L287.98022,367.39034 L278.91835,301.86412 L262.02342,359.4884 L261.99057,359.53573 L200.76557,448.42088 L176.94232,436.3504 L177.07283,436.04028 C178.52874,432.57744 212.83499,351.24668 222.05616,351.24668 C223.690873,351.361139 225.277264,350.664031 226.29852,349.38246 C229.00497,345.76846 226.80096,338.09962 226.77835,338.02263 C224.13866,327.07675 230.77577,323.34901 232.09765,322.72663 L235.6532,249.32963 L236.02177,249.35506 L332.41132,256.11614 L328.36746,347.88203 L319.66868,468.11356 L319.36987,468.14747 L288.60257,471.60041 Z" id="Path" fill="#2F2E41"></path>
            <polygon id="Path" fill="#5C509B" points="333.88402 272.37989 333.46724 272.34598 229.80268 263.98982 230.05857 229.68993 235.13239 140.13157 235.16117 140.06941 255.82394 95.21076 270.47124 88.57824 291.84147 87.45363 291.89357 87.4667 311.3964 92.29857 331.6844 237.9373"></polygon>
            <circle id="Oval" fill="#9F616A" transform="translate(282.098393, 52.008193) rotate(-28.663240) translate(-282.098393, -52.008193) " cx="282.098393" cy="52.0081933" r="27.29373"></circle>
            <path d="M254.64935,58.85956 L254.64935,48.22526 C254.64935,48.22526 246.07335,38.12491 255.50694,35.58062 C255.50694,35.58062 258.07972,10.13777 280.37717,22.0111 C280.37717,22.0111 311.25056,16.92253 307.82017,34.73253 C307.82017,34.73253 315.53852,30.08291 312.96573,41.95625 L307.98991,61.08212 C307.98991,61.08212 310.39297,48.44812 302.67462,46.75188 L298.38662,44.20759 C298.38662,44.20759 286.3803,56.08093 268.37082,41.66331 C268.37082,41.66331 260.65248,39.82114 261.51007,47.454 C262.36766,55.08686 254.64935,58.85956 254.64935,58.85956 Z" id="Path" fill="#2F2E41"></path>
            <path d="M279.2566,246.7656 C279.291509,243.558551 277.904099,240.500758 275.467696,238.415015 C273.031292,236.329273 269.796171,235.429834 266.63284,235.95872 L253.50091,214.962 L238.79491,219.83018 L257.7562,249.22118 C259.024673,254.594557 264.111709,258.169921 269.597118,257.543433 C275.082527,256.916946 279.232394,252.286636 279.25662,246.76562 L279.2566,246.7656 Z" id="Path" fill="#9F616A"></path>
            <path d="M245.33935,240.14696 L221.58179,191.91236 L221.60279,191.7951 C221.69851,191.26105 231.26179,138.16138 238.57595,118.64354 C245.93643,99.00208 256.01147,95.05854 256.43673,94.90029 L256.64936,94.82117 L265.68315,103.48639 L253.16921,187.01339 L266.65821,227.29731 L245.33935,240.14696 Z" id="Path" fill="#5C509B"></path>
            <rect id="Rectangle" fill="#F1F1F1" x="786.20604" y="0" width="46" height="46"></rect>
            <rect id="Rectangle" fill="#F1F1F1" x="426.20604" y="179" width="46" height="46"></rect>
            <polygon id="Path" fill="#FFFFFF" points="452.02486 204.84263 815.69955 204.84263 815.69955 20.73394 452.02486 20.73394"></polygon>
            <path d="M818.69958,207.8427 L449.02478,207.8427 L449.02478,17.73382 L818.69958,17.73382 L818.69958,207.8427 Z M455.02478,201.8427 L812.69958,201.8427 L812.69958,23.73382 L455.02478,23.73382 L455.02478,201.8427 Z" id="Shape" fill="#E5E5E5"></path>
            <rect id="Rectangle" fill="#E5E5E5" x="495.67778" y="85.31585" width="279.80647" height="9.27916"></rect>
            <rect id="Rectangle" fill="#E5E5E5" x="495.67778" y="107.81893" width="279.80647" height="9.27916"></rect>
            <rect id="Rectangle" fill="#5C509B" x="723.48425" y="141.04542" width="52" height="8.05267"></rect>
            <path d="M382.00002,500.31585 L1.00002,500.31585 C0.44773525,500.31585 2e-05,499.868135 2e-05,499.31585 C2e-05,498.763565 0.44773525,498.31585 1.00002,498.31585 L382.00002,498.31585 C382.552305,498.31585 383.00002,498.763565 383.00002,499.31585 C383.00002,499.868135 382.552305,500.31585 382.00002,500.31585 Z" id="Path"></path>
        </g>
    </g>
</svg>