<?xml version="1.0" encoding="UTF-8"?>
<svg width="406px" height="257px" viewBox="0 0 406 257" version="1.1" xmlns="http://www.w3.org/2000/svg" xmlns:xlink="http://www.w3.org/1999/xlink">
    <title>dutch-bangla-rocket-seeklogo.com</title>
    <g id="Page-1" stroke="none" stroke-width="1" fill="none" fill-rule="evenodd">
        <g id="g10" fill="#862397" transform="translate(203.000000, 128.400000) scale(-1, 1) rotate(-180.000000) translate(-203.000000, -128.400000) translate(0.000000, 0.400000)">
            <g id="g12" transform="translate(-0.000000, 0.000000)">
                <polyline id="path16" points="301.194658 222.585326 241.345326 162.735994 245.543993 129.134662 256.570659 152.235995 290.694658 108.661329 338.470657 255.659992 179.390661 189.509327 222.445327 166.935994 301.194658 222.585326"></polyline>
                <path d="M226.135993,54.5854638 C226.135993,54.5854638 193.583994,54.5854638 190.959994,54.5854638 C169.171995,53.2734638 162.083995,89.2346629 188.859994,93.9599962 C196.73466,93.9599962 226.135993,93.9599962 226.135993,93.9599962 L226.135993,54.5854638 Z M249.219993,117.585329 C249.219993,117.585329 198.55466,117.585329 186.217327,117.585329 C138.178662,110.234662 133.191995,40.4103975 185.691994,30.9598644 L249.219993,30.9598644 L249.219993,93.9599962 C270.394659,93.2599962 274.769325,66.8359968 259.194659,57.2109304 C262.345326,53.5359972 274.945325,39.8854642 274.945325,39.8854642 C308.019991,68.4103968 289.119992,115.310662 249.219993,117.585329" id="path18" fill-rule="nonzero"></path>
                <path d="M380.994656,86.0853297 C370.494656,86.0853297 357.894656,86.0853297 357.894656,86.0853297 L347.918657,62.9854636 C347.918657,62.9854636 374.694656,62.9854636 377.319989,62.9854636 C383.226656,63.2478636 383.487989,54.5854638 377.319989,54.0614638 C369.706656,54.0614638 326.394657,54.0614638 326.394657,54.0614638 L326.394657,93.9599962 L404.619989,93.9599962 L404.619989,117.585329 C404.619989,117.585329 393.726656,117.585329 393.070656,117.585329 C389.657322,166.410661 331.250657,167.853328 315.894658,141.209328 C318.914657,138.715995 333.21999,125.985329 333.21999,125.985329 C342.013324,139.766662 366.425323,139.110662 369.970656,117.585329 L303.294658,117.585329 L303.294658,30.9598644 L378.369323,30.9598644 C395.431989,31.2239977 403.306655,43.8229307 405.143989,54.5854638 C406.194655,71.9103967 395.694656,83.4599964 380.994656,86.0853297" id="path20"></path>
                <path d="M156.291995,117.585329 L125.841329,117.585329 C116.129329,105.773329 99.3293296,57.9983971 132.666662,22.0359979 C132.666662,22.0359979 147.103995,34.3734643 149.991995,36.7349309 C139.753329,46.7109307 122.691996,87.398663 156.291995,117.585329" id="path22"></path>
                <path d="M78.7838634,21.201598 C78.7838634,10.6625316 70.2390637,2.11719845 59.6978639,2.11719845 C49.1567975,2.11719845 40.6119977,10.6625316 40.6119977,21.201598 C40.6119977,31.7426644 49.1567975,40.2895975 59.6978639,40.2895975 C70.2390637,40.2895975 78.7838634,31.7426644 78.7838634,21.201598" id="path24"></path>
                <path d="M78.0661301,54.5854638 C78.0661301,54.5854638 45.5161309,54.5854638 42.8911977,54.5854638 C21.1041316,53.2734638 14.0161317,89.2346629 40.7917311,93.9599962 C48.6666642,93.9599962 78.0661301,93.9599962 78.0661301,93.9599962 L78.0661301,54.5854638 Z M38.1666645,117.585329 C-9.870801,110.234662 -14.8588009,40.4103975 37.6411978,30.9598644 L37.9921311,30.9598644 C41.7187977,39.2359975 50.0322642,45.002664 59.6978639,45.002664 C69.363597,45.002664 77.6770635,39.2359975 81.4035967,30.9598644 L101.166663,30.9598644 C101.166663,33.8478643 101.166663,117.585329 101.166663,117.585329 C101.166663,117.585329 50.5035975,117.585329 38.1666645,117.585329" id="path26"></path>
                <path d="M59.7499973,148.727995 C59.7499973,147.635995 58.8567973,146.742661 57.765064,146.742661 L47.7197309,146.742661 L47.7197309,150.937328 L57.765064,150.937328 C58.8567973,150.937328 59.7499973,150.045328 59.7499973,148.951995 L59.7499973,148.727995 Z M60.7499972,138.059995 C68.4849304,139.371995 72.2917303,155.254661 59.6917306,158.797328 C58.247864,158.797328 39.2166644,158.797328 39.2166644,158.797328 L39.2166644,128.610662 L47.6166642,128.610662 L47.6166642,138.059995 L57.0661307,128.610662 L70.199997,128.610662 L60.7499972,138.059995" id="path28"></path>
                <path d="M84.81733,137.254662 C81.1057301,137.254662 78.0953301,140.263995 78.0953301,143.977328 C78.0953301,147.689328 81.1057301,150.699995 84.81733,150.699995 C88.5306632,150.699995 91.5413298,147.689328 91.5413298,143.977328 C91.5413298,140.263995 88.5306632,137.254662 84.81733,137.254662 Z M84.81733,159.274661 C76.3697302,159.274661 69.5202637,152.425328 69.5202637,143.977328 C69.5202637,135.529328 76.3697302,128.678662 84.81733,128.678662 C93.2666631,128.678662 100.115996,135.529328 100.115996,143.977328 C100.115996,152.425328 93.2666631,159.274661 84.81733,159.274661" id="path30"></path>
                <path d="M171.601328,150.583995 L185.350661,150.583995 L185.350661,159.450661 L173.715994,159.450661 C164.567995,159.450661 157.083995,152.546661 157.083995,144.107995 C157.083995,135.670662 164.567995,128.766662 173.715994,128.766662 L185.350661,128.766662 L185.350661,137.633328 L171.601328,137.633328 C169.583995,137.633328 167.786661,138.597328 166.631995,140.082662 L185.350661,140.082662 L185.350661,148.133328 L166.631995,148.133328 C167.786661,149.618661 169.583995,150.583995 171.601328,150.583995" id="path32"></path>
                <path d="M116.949329,137.633328 C113.485329,137.633328 110.649329,140.467995 110.649329,143.933328 L110.649329,144.283995 C110.649329,147.749328 113.485329,150.583995 116.949329,150.583995 L130.017329,150.583995 L130.017329,159.450661 L118.298662,159.450661 C109.150663,159.450661 101.666663,152.546661 101.666663,144.107995 C101.666663,135.670662 109.150663,128.766662 118.298662,128.766662 L130.017329,128.766662 L130.017329,137.633328 L116.949329,137.633328" id="path34"></path>
                <polyline id="path36" points="217.28266 158.866661 187.649327 158.866661 187.649327 150.933328 198.499994 150.933328 198.499994 129.233329 206.433327 129.233329 206.433327 150.933328 217.28266 150.933328 217.28266 158.866661"></polyline>
                <polyline id="path38" fill-rule="nonzero" points="146.753328 144.163995 161.339995 158.866661 149.537328 158.866661 141.333329 150.597328 141.333329 158.866661 133.399995 158.866661 133.399995 129.233329 141.333329 129.233329 141.333329 137.730662 149.762662 129.233329 161.565328 129.233329 146.753328 144.163995"></polyline>
                <path d="M266.071992,16.2707981 C264.759992,16.0103981 263.607992,15.1863981 262.614659,13.7999982 C261.657326,12.4838649 261.179992,11.1494649 261.179992,9.79586492 C261.179992,8.98279828 261.347992,8.1931983 261.685326,7.43173165 C262.110659,6.45986501 262.687992,5.97599835 263.415992,5.97599835 C263.787992,5.97599835 264.266659,6.17599835 264.853325,6.57599834 L265.677325,4.37453172 C264.934659,3.92546507 264.210659,3.70159841 263.505325,3.70159841 C262.550659,3.70159841 261.633326,4.05466507 260.750659,4.76399838 C260.237326,5.17706504 259.750659,5.96399835 259.293326,7.12293166 C259.062659,7.69319831 258.947992,8.54946495 258.947992,9.69066492 L258.947992,10.4947982 C258.947992,12.2906649 259.902659,14.3135981 261.809326,16.5614648 C262.215992,17.0265314 262.895992,17.6838647 263.849325,18.5317314 L266.842659,18.5317314 L266.842659,16.3478648 C266.559992,16.3135981 266.302659,16.2879981 266.071992,16.2707981" id="path40" fill-rule="nonzero"></path>
                <path d="M276.845325,16.3437314 L270.975992,16.3437314 C272.633325,15.2693315 273.495992,13.8639982 273.567992,12.1291982 C274.623992,11.7135982 275.717325,10.8895982 276.845325,9.65733159 L276.845325,16.3437314 Z M279.338658,16.3437314 L279.338658,3.8759984 L276.845325,3.8759984 L276.845325,5.48546503 C276.845325,6.03853168 276.422659,6.747865 275.578659,7.61453164 C274.943992,8.27186496 274.275992,8.84266495 273.573325,9.3281316 C272.798659,9.86253159 271.953325,10.1317316 271.037325,10.1317316 C270.105325,10.1317316 269.427992,9.73173159 269.005325,8.93173161 C268.953325,8.84373161 268.926659,8.73333161 268.926659,8.59213162 C268.926659,8.26146496 269.089325,7.96146497 269.414659,7.69213164 C269.739992,7.42293165 270.069325,7.28959832 270.405325,7.28959832 C270.667992,7.28959832 271.301325,7.48279831 272.305325,7.8707983 L273.042659,5.60266503 C271.929325,5.03493171 271.002659,4.75053171 270.259992,4.75053171 C269.427992,4.75053171 268.669325,4.98279838 267.979992,5.44946503 C267.291992,5.91359835 266.787992,6.525465 266.470659,7.28546498 C266.327992,7.61199831 266.257325,8.01613163 266.257325,8.49999829 C266.257325,9.91199825 266.841325,10.9906649 268.010659,11.7317315 C268.823992,12.2650649 269.693325,12.5333315 270.611992,12.5333315 C270.699992,12.5333315 270.779992,12.5333315 270.851992,12.5333315 C270.833325,12.9693315 270.602659,13.4587982 270.161325,14.0015981 C269.718659,14.5411981 269.285325,14.8135981 268.861325,14.8135981 L266.101325,14.8135981 L266.101325,16.3437314 L264.989325,16.3437314 L264.989325,18.5317314 L281.043992,18.5317314 L281.043992,16.3437314 L279.338658,16.3437314" id="path42" fill-rule="nonzero"></path>
                <polyline id="path44" fill-rule="nonzero" points="284.191992 16.3437314 284.191992 3.8759984 281.697325 3.8759984 281.697325 16.3437314 279.859992 16.3437314 279.859992 18.5317314 285.854658 18.5317314 285.854658 16.3437314 284.191992 16.3437314"></polyline>
                <path d="M296.357325,13.6469315 C295.894658,13.4906648 295.398658,13.3093315 294.863991,13.1026648 C294.083991,12.7573315 292.662658,12.1349315 290.601325,11.2374649 L290.122658,11.0306649 C292.093325,10.3401316 293.975991,9.3213316 295.770658,7.97346497 C296.001325,7.7999983 296.195991,7.65466498 296.357325,7.53333164 L296.357325,13.6469315 Z M296.215991,16.3437314 L284.981325,16.3437314 L284.981325,18.5317314 L300.533325,18.5317314 L300.533325,16.3437314 L298.806658,16.3437314 L298.806658,3.8759984 L296.603991,3.8759984 C296.391991,4.51359839 295.311991,5.50679836 293.366658,6.85053166 C292.570658,7.40159831 291.473325,7.93746497 290.077325,8.45466496 C288.589325,9.00679827 287.405325,9.28279827 286.521325,9.28279827 L285.857325,11.7650649 C286.438658,12.2317315 288.046658,13.0333315 290.678658,14.1718648 C291.790658,14.6546648 293.637325,15.3786648 296.215991,16.3437314" id="path46" fill-rule="nonzero"></path>
                <polyline id="path48" fill-rule="nonzero" points="303.662658 16.3437314 303.662658 3.8759984 301.169325 3.8759984 301.169325 16.3437314 299.331991 16.3437314 299.331991 18.5317314 305.325324 18.5317314 305.325324 16.3437314 303.662658 16.3437314"></polyline>
                <path d="M313.118658,1.77599846 C312.110658,2.68959843 311.033324,3.54119841 309.886658,4.33493172 C309.338658,4.71359838 308.427991,5.1349317 307.157324,5.59999836 C306.149324,5.96146502 305.558658,6.14266501 305.381324,6.14266501 L305.409324,9.06253161 C305.621324,9.06253161 305.942658,9.04946494 306.374658,9.02293161 C306.806658,8.99733161 307.130658,8.98386494 307.342658,8.98386494 C308.471991,8.98386494 309.390658,9.12919827 310.097324,9.41879826 C311.438658,9.98119825 312.110658,10.6453316 312.110658,11.4119982 C312.110658,11.9745315 311.854658,12.4426649 311.342658,12.8171982 C310.847991,13.1078648 310.343991,13.3879982 309.831991,13.6614648 C309.690658,13.7291982 309.549324,13.7639982 309.409324,13.7639982 C309.107991,13.7639982 308.781324,13.6863982 308.427991,13.5333315 C307.986658,13.3291982 307.783991,13.0983982 307.818658,12.8437315 C307.907991,12.1958649 308.586658,11.9239982 309.859991,12.0254649 L308.507991,9.95626492 C307.961324,9.92293159 307.403991,10.0947982 306.839991,10.4745316 C305.814658,11.1639982 305.302658,12.0103982 305.302658,13.0103982 C305.302658,14.0103981 305.822658,14.7879981 306.865324,15.3401314 C307.713324,15.8051981 308.686658,16.0385314 309.781324,16.0385314 C310.257324,16.0385314 310.669324,15.9598648 311.013324,15.8051981 C311.358658,15.6505314 311.706658,15.4786648 312.059991,15.2895981 C313.755991,14.4281315 314.603991,13.1187982 314.603991,11.3614649 C314.603991,10.1041316 314.083991,9.08799827 313.039991,8.31359829 C312.245324,7.72813164 311.105324,7.30519832 309.621324,7.04693166 C310.062658,6.84013166 310.697324,6.48639834 311.527991,5.98799835 C312.941324,4.91973171 314.081324,3.96253173 314.946658,3.11973176 L313.118658,1.77599846 Z M304.454658,16.3437314 L304.454658,18.5317314 L311.818658,18.5317314 C311.837324,18.618798 311.846658,18.6786647 311.846658,18.7145314 C311.846658,19.8562647 311.306658,20.6109313 310.230658,20.9734646 C310.087991,21.0078646 309.929324,21.0254646 309.751991,21.0254646 C309.486658,21.0254646 309.161324,20.9734646 308.771991,20.8682646 C308.242658,20.7281313 307.923991,20.6478647 307.818658,20.6306647 C307.394658,20.5614647 307.023991,20.429198 306.706658,20.235998 C306.299991,19.9562647 305.831991,19.701598 305.302658,19.4734647 L304.507991,21.3229313 C305.461324,21.981198 306.714658,22.5453313 308.269324,23.0135979 C308.922658,23.2051979 309.539991,23.2999979 310.123991,23.2999979 C310.742658,23.2999979 311.439991,23.0759979 312.217324,22.6265313 C313.541324,21.8317313 314.230658,20.4666647 314.283991,18.5317314 L315.714658,18.5317314 L315.714658,16.3437314 L304.454658,16.3437314" id="path50" fill-rule="nonzero"></path>
                <path d="M330.63199,16.3437314 L330.63199,3.8759984 L328.138657,3.8759984 L328.138657,8.82293161 C328.138657,9.2521316 327.953324,9.69319826 327.583991,10.1494649 C327.211991,10.6041316 326.815991,10.8317316 326.393324,10.8317316 C326.005324,10.8317316 325.635991,10.5921316 325.282657,10.1135982 C324.929324,9.63173159 324.753324,9.08546494 324.753324,8.46933162 L322.057324,8.46933162 C322.057324,9.15986494 321.878657,9.75466492 321.523991,10.2562649 C321.167991,10.7562649 320.759991,11.0078649 320.298657,11.0078649 C319.907991,11.0078649 319.533324,10.8682649 319.178657,10.5921316 C318.822657,10.3145316 318.629324,9.99586492 318.591991,9.63173159 L318.513324,8.98546494 L318.513324,8.72653162 C318.513324,7.44693165 319.297324,6.80679833 320.865324,6.80679833 C321.111991,6.80679833 321.534657,6.85879833 322.134657,6.96399833 L321.259991,4.44533172 C320.747991,4.38639839 320.437324,4.35733172 320.331991,4.35733172 C319.165324,4.35733172 318.087991,4.78959838 317.098657,5.65306503 C316.710657,5.98119835 316.393324,6.48279834 316.143991,7.15733165 C315.915991,7.76146497 315.801324,8.34946496 315.801324,8.91973161 C315.801324,10.2682649 316.215991,11.3614649 317.046657,12.1983982 C317.878657,13.0374648 318.966657,13.4562648 320.310657,13.4562648 C321.566657,13.4562648 322.619991,12.8587982 323.469324,11.6639982 C324.387991,12.8587982 325.378657,13.4562648 326.439991,13.4562648 C327.023991,13.4562648 327.589324,13.1921315 328.138657,12.6625315 L328.138657,16.3437314 L314.662658,16.3437314 L314.662658,18.5317314 L332.042657,18.5317314 L332.042657,16.3437314 L330.63199,16.3437314" id="path52" fill-rule="nonzero"></path>
                <path d="M349.474657,13.6469315 C349.013323,13.4906648 348.517323,13.3093315 347.982657,13.1026648 C347.201323,12.7573315 345.781323,12.1349315 343.71999,11.2374649 L343.241324,11.0306649 C345.21199,10.3401316 347.094657,9.3213316 348.889323,7.97346497 C349.11999,7.7999983 349.31599,7.65466498 349.474657,7.53333164 L349.474657,13.6469315 Z M349.334657,16.3437314 L338.09999,16.3437314 L338.09999,18.5317314 L353.65199,18.5317314 L353.65199,16.3437314 L351.925323,16.3437314 L351.925323,3.8759984 L349.722657,3.8759984 C349.510657,4.51359839 348.430657,5.50679836 346.485323,6.85053166 C345.689323,7.40159831 344.59199,7.93746497 343.194657,8.45466496 C341.70799,9.00679827 340.52399,9.28279827 339.638657,9.28279827 L338.974657,11.7650649 C339.557324,12.2317315 341.165324,13.0333315 343.797323,14.1718648 C344.909323,14.6546648 346.754657,15.3786648 349.334657,16.3437314" id="path54" fill-rule="nonzero"></path>
                <path d="M357.83199,16.3437314 C357.04399,15.2530648 356.650657,14.3530648 356.650657,13.6437315 C356.650657,13.3145315 357.05199,11.9983982 357.858656,9.69586492 C358.277323,8.53599829 358.48799,7.57453164 358.48799,6.81359833 C358.48799,5.35879837 357.67599,4.34533172 356.050657,3.77453174 C355.557323,3.58386508 354.674657,3.42919841 353.40399,3.30679842 L353.741323,5.46146503 C355.213323,5.77453169 355.950657,6.29319834 355.950657,7.01973166 C355.950657,7.69586497 355.64399,8.73493161 355.03199,10.1374649 C354.418657,11.5401315 354.113323,12.5693315 354.113323,13.2281315 C354.113323,14.0759981 354.46799,15.1161315 355.178657,16.3437314 L352.582657,16.3437314 L352.582657,18.5317314 L359.537323,18.5317314 L359.537323,16.3437314 L357.83199,16.3437314" id="path56" fill-rule="nonzero"></path>
                <polyline id="path58" fill-rule="nonzero" points="363.166656 16.3437314 363.166656 3.8759984 360.673323 3.8759984 360.673323 16.3437314 358.83599 16.3437314 358.83599 18.5317314 364.829323 18.5317314 364.829323 16.3437314 363.166656 16.3437314"></polyline>
                <path d="M369.441323,15.5103981 C369.193323,15.6827981 368.94399,15.7521314 368.694656,15.7187981 C367.75199,15.5625314 367.282656,15.0958648 367.282656,14.3197315 C367.282656,13.9229315 367.437323,13.5562648 367.749323,13.2197315 C368.05999,12.8827982 368.410656,12.7145315 368.802656,12.7145315 L369.14799,12.7666648 C369.858656,12.9906648 370.213323,13.4213315 370.213323,14.0614648 C370.213323,14.6650648 369.95599,15.1478648 369.441323,15.5103981 L369.441323,15.5103981 Z M371.647989,2.39999844 C368.486656,5.06146504 366.341323,6.659865 365.210656,7.19479832 L365.237323,10.6411982 C369.582656,7.53173165 372.425323,5.05213171 373.767989,3.20413175 L373.767989,0.638531817 L371.647989,2.39999844 Z M368.91999,10.4385316 C367.753323,10.4385316 366.817323,10.8051982 366.110656,11.5401315 C365.40399,12.2745315 365.05199,13.2213315 365.05199,14.3802648 C365.05199,15.4505314 365.413323,16.3437314 366.138656,17.0625314 C366.861323,17.7802647 367.762656,18.1385314 368.841323,18.1385314 C370.306656,18.1385314 371.366656,17.4026647 372.021323,15.9349314 C372.303989,15.3119981 372.445323,14.6983981 372.445323,14.0947981 C372.445323,12.9707982 372.139989,12.0786649 371.529323,11.4229315 C370.919989,10.7666649 370.050656,10.4385316 368.91999,10.4385316" id="path60" fill-rule="nonzero"></path>
                <path d="M389.449322,19.9921313 C386.543989,21.818798 384.166656,22.7333313 382.315989,22.7333313 C380.133323,22.7333313 378.529323,22.0401313 377.509323,20.658798 C377.155989,20.1745313 376.963989,19.4650647 376.927989,18.5317314 L378.678656,18.5317314 L378.678656,16.3437314 L376.927989,16.3437314 L376.927989,3.8759984 L374.390656,3.8759984 L374.390656,16.3437314 L372.727989,16.3437314 L372.727989,18.5317314 L374.390656,18.5317314 C374.442656,20.3026647 375.026656,21.7385313 376.139989,22.8401313 C377.251989,23.9411979 378.762656,24.6197312 380.671989,24.8775979 C380.865323,24.8958645 381.237323,24.9385312 381.785323,25.0078645 L382.314656,25.0078645 C383.834656,25.0078645 385.345322,24.6786645 386.847989,24.0239979 C387.659989,23.6453312 388.994656,22.8879979 390.849322,21.7494646 L389.449322,19.9921313" id="path62" fill-rule="nonzero"></path>
                <path d="M384.886656,13.4650648 C384.479989,13.1546648 383.861322,12.7401315 383.027989,12.2229315 C382.815989,12.1349315 382.573323,11.9587982 382.299989,11.6906649 C382.025323,11.4229315 381.763989,11.1770649 381.517323,10.9530649 C381.781323,10.7109316 382.205323,10.3745316 382.790656,9.94266492 C383.338656,9.3213316 384.037322,8.55213162 384.886656,7.63746498 L384.886656,13.4650648 Z M387.381322,16.3437314 L387.381322,16.2666648 C388.422656,16.2145314 389.510656,15.8854648 390.639989,15.2786648 C392.229322,14.4119981 393.025322,13.2333315 393.025322,11.7426649 C393.025322,10.8759984 392.758656,10.1265316 392.227989,9.49479826 C391.694656,8.86146495 391.001322,8.44693162 390.141322,8.24693163 C389.282656,8.04786497 388.551989,8.0171983 387.949322,8.15626496 L387.949322,10.5119982 C388.231989,10.4770649 388.494656,10.4598649 388.742656,10.4598649 C389.993322,10.4598649 390.618656,10.9093316 390.618656,11.8067982 C390.618656,12.8786648 389.538656,13.5521315 387.381322,13.8281315 L387.381322,3.8759984 L385.179989,3.8759984 C384.825322,4.56666505 384.471989,5.09999837 384.118656,5.48026503 C383.994656,5.61879836 383.677322,6.03066502 383.163989,6.72133167 C383.005323,6.94693166 382.711989,7.23066499 382.289323,7.57453164 C381.863989,7.9187983 381.573323,8.20413163 381.414656,8.42813162 C381.342656,8.53173162 381.147989,8.64373162 380.830656,8.76506495 C379.751989,9.1437316 378.875989,9.3349316 378.205323,9.3349316 L377.541323,11.8171982 C378.093323,12.2145315 379.330656,12.9562648 381.254656,14.0426648 C381.397323,14.1453315 381.983989,14.4906648 383.018656,15.0770648 C383.390656,15.3015981 384.014656,15.6639981 384.886656,16.1639981 L384.886656,16.3437314 L377.011989,16.3437314 L377.011989,18.5317314 L394.127989,18.5317314 L394.127989,16.3437314 L387.381322,16.3437314" id="path64" fill-rule="nonzero"></path>
                <path d="M398.371989,15.5103981 C398.122655,15.6827981 397.873322,15.7521314 397.625322,15.7187981 C396.683989,15.5625314 396.213322,15.0958648 396.213322,14.3197315 C396.213322,13.9229315 396.367989,13.5562648 396.679989,13.2197315 C396.989322,12.8827982 397.341322,12.7145315 397.731989,12.7145315 L398.078655,12.7666648 C398.789322,12.9906648 399.143989,13.4213315 399.143989,14.0614648 C399.143989,14.6650648 398.886655,15.1478648 398.371989,15.5103981 L398.371989,15.5103981 Z M400.579989,2.39999844 C397.417322,5.06146504 395.270656,6.659865 394.139989,7.19479832 L394.167989,10.6411982 C398.513322,7.53173165 401.355989,5.05213171 402.697322,3.20413175 L402.697322,0.638531817 L400.579989,2.39999844 Z M397.851989,10.4385316 C396.685322,10.4385316 395.749322,10.8051982 395.041322,11.5401315 C394.334656,12.2745315 393.981322,13.2213315 393.981322,14.3802648 C393.981322,15.4505314 394.343989,16.3437314 395.067989,17.0625314 C395.793322,17.7802647 396.694655,18.1385314 397.771989,18.1385314 C399.237322,18.1385314 400.298655,17.4026647 400.951989,15.9349314 C401.234655,15.3119981 401.374655,14.6983981 401.374655,14.0947981 C401.374655,12.9707982 401.070655,12.0786649 400.461322,11.4229315 C399.851989,10.7666649 398.981322,10.4385316 397.851989,10.4385316" id="path66" fill-rule="nonzero"></path>
                <polyline id="path68" fill-rule="nonzero" points="122.189329 2.80519843 126.834662 1.23599847 128.693329 2.80519843 124.046662 4.43746506 122.189329 2.80519843"></polyline>
                <path d="M119.710662,9.83333159 C120.175996,9.69479826 120.794662,10.4530649 121.259996,11.0718649 C121.259996,10.3838649 121.259996,9.28119827 121.259996,8.17866496 C121.259996,7.07706499 120.382662,6.11359835 119.710662,6.11359835 C119.039996,6.11359835 113.206663,6.11359835 113.206663,6.11359835 L113.206663,9.83333159 C113.206663,9.83333159 119.142662,9.83333159 119.710662,9.83333159 Z M123.737329,15.7015981 L123.737329,18.513598 L87.2533299,18.513598 L87.2533299,15.7015981 L93.3866631,15.7015981 L93.3866631,9.41879826 C93.3866631,9.41879826 98.0839963,9.41879826 98.6519963,9.41879826 C98.6519963,9.41879826 100.147996,9.90159825 100.50933,10.6598649 C100.50933,9.76399826 100.50933,8.52293162 100.50933,8.17866496 C100.50933,7.07706499 99.6839963,6.11359835 98.6519963,6.11359835 C97.618663,6.11359835 91.3733298,6.11359835 90.9093298,6.11359835 C90.4439965,6.11359835 89.9799965,6.31973168 89.9799965,8.17866496 C89.9799965,10.0401316 89.9799965,14.0349315 89.9799965,14.0349315 L87.2533299,14.0349315 C87.2533299,14.0349315 87.2533299,7.14693165 87.2533299,6.525465 C87.2533299,5.90519835 87.6439966,3.71613174 89.6066632,3.71613174 C91.5679965,3.71613174 99.6866629,3.71613174 100.099996,3.71613174 C101.734663,3.77079841 102.89733,5.4349317 102.986663,6.837465 C102.986663,9.86826492 102.986663,14.0349315 102.986663,14.0349315 L100.50933,14.0349315 C100.250663,12.9333315 100.406663,12.1759982 99.2706629,11.8999982 C98.1359963,11.8999982 96.1733297,11.8999982 96.1733297,11.8999982 L96.1733297,15.7015981 L105.154663,15.7015981 L105.154663,3.71613174 L108.251996,3.71613174 L108.251996,15.7015981 L110.419996,15.7015981 L110.419996,3.71613174 C110.419996,3.71613174 119.917329,3.71613174 120.639996,3.71613174 C121.362662,3.71613174 123.737329,4.32133173 123.737329,6.93853166 C123.737329,9.55733159 123.737329,14.0349315 123.737329,14.0349315 L121.259996,14.0349315 C121.259996,13.3453315 121.155996,12.3119982 120.021329,12.3119982 C118.885329,12.3119982 113.206663,12.3119982 113.206663,12.3119982 L113.206663,15.7015981 L123.737329,15.7015981" id="path70" fill-rule="nonzero"></path>
                <polygon id="path72" fill-rule="nonzero" points="127.143996 9.00679827 133.337222 9.00679827 133.337222 12.3120115 127.143996 12.3120115"></polygon>
                <path d="M146.965328,5.69999836 C146.965328,5.69999836 141.027995,5.69999836 140.771995,5.69999836 C139.842662,5.83746502 139.222662,6.93853166 139.222662,8.17866496 C139.222662,9.41879826 139.222662,11.4863982 139.222662,11.4863982 L146.965328,11.4863982 L146.965328,5.69999836 Z M136.758662,18.513598 L136.758662,15.7015981 L146.965328,15.7015981 L146.965328,14.0349315 L136.758662,14.0349315 C136.758662,14.0349315 136.758662,7.83493164 136.758662,7.35306498 C136.978662,5.17706504 138.095995,3.71613174 140.213329,3.71613174 C142.741329,3.71613174 149.442662,3.71613174 149.442662,3.71613174 L149.442662,15.7015981 L151.610662,15.7015981 L151.610662,3.71613174 L154.397328,3.71613174 L154.397328,18.513598 L136.758662,18.513598" id="path74" fill-rule="nonzero"></path>
                <path d="M167.775995,15.7015981 L180.413328,15.7015981 L180.413328,14.0349315 C179.845328,14.0349315 177.057328,14.0349315 176.697328,14.0349315 C176.541328,12.8639982 174.631994,12.2306649 174.219994,14.0349315 C172.154661,14.0349315 167.775995,14.0349315 167.775995,14.0349315 C167.775995,14.0349315 167.775995,7.62813164 167.775995,6.93853166 C167.775995,6.25053168 167.881328,3.9983984 169.773328,3.71613174 C171.527994,3.71613174 174.838661,3.71613174 174.838661,3.71613174 L174.838661,6.11359835 C174.838661,6.11359835 172.050661,6.11359835 171.431994,6.11359835 C170.761328,6.31973168 170.193328,6.73333167 170.193328,7.76666497 C170.193328,9.00679827 170.193328,11.4863982 170.193328,11.4863982 L173.599994,11.4863982 L173.599994,9.41879826 L176.697328,9.41879826 L176.697328,11.0718649 C176.490661,11.8306649 179.949328,11.7625315 180.103994,11.0718649 C180.103994,10.0401316 180.103994,3.71613174 180.103994,3.71613174 L182.890661,3.71613174 L182.890661,15.7015981 L184.749327,15.7015981 L184.749327,3.71613174 L187.535994,3.71613174 L187.535994,18.513598 L167.775995,18.513598 L167.775995,15.7015981" id="path76" fill-rule="nonzero"></path>
                <path d="M161.375995,13.5426648 C160.187995,13.5426648 159.223995,13.9770648 159.223995,14.5119981 C159.223995,15.0469315 160.187995,15.4811981 161.375995,15.4811981 C162.562661,15.4811981 163.525328,15.0469315 163.525328,14.5119981 C163.525328,13.9770648 162.562661,13.5426648 161.375995,13.5426648 Z M163.378661,17.6863981 C162.243995,17.6863981 156.797328,17.6863981 156.797328,17.6863981 C156.797328,17.6863981 156.797328,14.4229315 156.797328,13.8015982 C157.055995,12.5625315 157.718661,11.0317316 159.973328,10.9078649 C162.243995,10.9078649 165.238661,10.9078649 165.238661,10.9078649 L165.238661,15.7015981 C165.083995,16.5145314 164.515995,17.5494647 163.378661,17.6863981" id="path78" fill-rule="nonzero"></path>
                <polyline id="path80" fill-rule="nonzero" points="157.234661 9.45306493 157.234661 7.01199832 165.193328 3.71199841 165.193328 6.29479834 157.234661 9.45306493"></polyline>
                <path d="M228.101326,13.5426648 C226.913326,13.5426648 225.949326,13.9770648 225.949326,14.5119981 C225.949326,15.0469315 226.913326,15.4811981 228.101326,15.4811981 C229.287993,15.4811981 230.25066,15.0469315 230.25066,14.5119981 C230.25066,13.9770648 229.287993,13.5426648 228.101326,13.5426648 Z M230.105326,17.6863981 C228.969326,17.6863981 223.523993,17.6863981 223.523993,17.6863981 C223.523993,17.6863981 223.523993,14.4229315 223.523993,13.8015982 C223.781326,12.5625315 224.443993,11.0317316 226.697326,10.9078649 C228.969326,10.9078649 231.963993,10.9078649 231.963993,10.9078649 L231.963993,15.7015981 C231.807993,16.5145314 231.241326,17.5494647 230.105326,17.6863981" id="path82" fill-rule="nonzero"></path>
                <polyline id="path84" fill-rule="nonzero" points="223.959993 9.45306493 223.959993 7.01199832 231.917326 3.71199841 231.917326 6.29479834 223.959993 9.45306493"></polyline>
                <path d="M244.525326,5.69999836 C244.525326,5.69999836 238.589326,5.69999836 238.331993,5.69999836 C237.402659,5.83746502 236.783993,6.93853166 236.783993,8.17866496 C236.783993,9.41879826 236.783993,11.4863982 236.783993,11.4863982 L244.478659,11.4863982 L244.522659,11.0718649 L244.525326,11.0718649 L244.525326,5.69999836 Z M247.002659,14.0349315 L247.002659,15.7015981 L252.135992,15.7015981 L252.135992,18.513598 L234.321326,18.513598 L234.321326,15.7015981 L244.525326,15.7015981 L244.525326,14.0349315 L234.321326,14.0349315 C234.321326,14.0349315 234.321326,7.83493164 234.321326,7.35306498 C234.541326,5.17706504 235.657326,3.71613174 237.773326,3.71613174 C240.302659,3.71613174 247.002659,3.71613174 247.002659,3.71613174 L247.002659,11.0718649 L249.477326,11.0718649 C249.890659,11.0718649 249.994659,11.2802649 250.097326,10.6598649 C250.097326,9.90159825 250.097326,9.41879826 250.097326,9.41879826 C249.942659,8.79839828 249.890659,8.38546496 249.477326,8.17866496 C249.065326,8.17866496 248.565326,8.17866496 248.565326,8.17866496 L248.565326,5.69999836 L250.407992,5.69999836 C251.026659,5.76933169 252.161326,6.45626501 252.265326,7.35306498 C252.265326,8.73066495 252.265326,14.0349315 252.265326,14.0349315 L247.002659,14.0349315" id="path86" fill-rule="nonzero"></path>
                <path d="M206.081327,5.69999836 C206.081327,5.69999836 200.145327,5.69999836 199.88666,5.69999836 C198.95866,5.83746502 198.33866,6.93853166 198.33866,8.17866496 C198.33866,9.41879826 198.33866,11.4863982 198.33866,11.4863982 L206.081327,11.4863982 L206.081327,5.69999836 Z M195.877327,18.513598 L195.877327,15.7015981 L206.081327,15.7015981 L206.081327,14.0349315 L195.877327,14.0349315 C195.877327,14.0349315 195.877327,7.83493164 195.877327,7.35306498 C196.097327,5.17706504 197.213327,3.71613174 199.329327,3.71613174 C201.85866,3.71613174 208.557327,3.71613174 208.557327,3.71613174 L208.557327,15.7015981 L211.783993,15.7015981 L210.609327,13.3505315 L210.609327,11.6973315 C210.609327,11.6973315 212.363993,11.6973315 212.77866,11.6973315 C213.93066,11.5650649 214.32666,10.8026649 214.32666,8.80413161 C214.32666,7.42653165 214.01066,6.43173167 212.941327,6.32399834 C212.269327,6.32399834 210.91866,6.32399834 210.91866,6.32399834 L210.91866,3.84373174 C210.91866,3.84373174 212.469327,3.84373174 213.087993,3.84373174 C213.70666,3.84373174 216.545327,3.56826508 216.805327,6.32399834 C217.113327,11.9051982 217.371993,13.3505315 213.397327,13.7650648 L213.977327,15.7015981 L218.343993,15.7015981 L218.343993,3.71613174 L221.13066,3.71613174 L221.13066,18.513598 L195.877327,18.513598" id="path88" fill-rule="nonzero"></path>
            </g>
        </g>
    </g>
</svg>